<svg width="25" height="25" viewBox="0 0 25 25" fill="none" xmlns="http://www.w3.org/2000/svg">
<path fill-rule="evenodd" clip-rule="evenodd" d="M2 8.6C2 7.91044 2.28973 7.24912 2.80546 6.76152C3.32118 6.27393 4.02065 6 4.75 6H15.0625C15.7295 5.99993 16.3738 6.22905 16.8754 6.64471C17.377 7.06036 17.7017 7.63421 17.7891 8.2594L22.0654 6.4628C22.2747 6.37462 22.504 6.3373 22.7324 6.35423C22.9609 6.37116 23.1812 6.4418 23.3735 6.55973C23.5657 6.67766 23.7237 6.83915 23.8331 7.0295C23.9425 7.21986 23.9999 7.43305 24 7.6497V17.3503C23.9998 17.5668 23.9424 17.7798 23.8331 17.97C23.7237 18.1602 23.5659 18.3216 23.3738 18.4395C23.1818 18.5574 22.9617 18.628 22.7334 18.6451C22.5052 18.6622 22.276 18.6251 22.0667 18.5372L17.7891 16.7406C17.7017 17.3658 17.377 17.9396 16.8754 18.3553C16.3738 18.7709 15.7295 19.0001 15.0625 19H4.75C4.02065 19 3.32118 18.7261 2.80546 18.2385C2.28973 17.7509 2 17.0896 2 16.4V8.6Z" fill="#F5C506"/>
</svg>
