<svg width="100" height="100" viewBox="0 0 100 100" fill="none" xmlns="http://www.w3.org/2000/svg">
<path d="M56.7812 11H43.2188C41.0742 11.0001 39.0049 11.8058 37.4064 13.2632C35.808 14.7206 34.7925 16.7275 34.5542 18.9H27.7188C25.4064 18.9 23.1887 19.8364 21.5537 21.5031C19.9186 23.1698 19 25.4304 19 27.7875V81.1125C19 83.4696 19.9186 85.7302 21.5537 87.3969C23.1887 89.0636 25.4064 90 27.7188 90H72.2812C73.4262 90 74.56 89.7701 75.6178 89.3235C76.6756 88.8768 77.6367 88.2222 78.4463 87.3969C79.2559 86.5716 79.8982 85.5919 80.3363 84.5136C80.7745 83.4353 81 82.2796 81 81.1125V27.7875C81 26.6204 80.7745 25.4647 80.3363 24.3864C79.8982 23.3081 79.2559 22.3284 78.4463 21.5031C77.6367 20.6778 76.6756 20.0232 75.6178 19.5765C74.56 19.1299 73.4262 18.9 72.2812 18.9H65.4458C65.2075 16.7275 64.192 14.7206 62.5936 13.2632C60.9951 11.8058 58.9258 11.0001 56.7812 11V11ZM43.2188 16.925H56.7812C57.552 16.925 58.2913 17.2371 58.8363 17.7927C59.3813 18.3483 59.6875 19.1018 59.6875 19.8875C59.6875 20.6732 59.3813 21.4267 58.8363 21.9823C58.2913 22.5379 57.552 22.85 56.7812 22.85H43.2188C42.448 22.85 41.7087 22.5379 41.1637 21.9823C40.6187 21.4267 40.3125 20.6732 40.3125 19.8875C40.3125 19.1018 40.6187 18.3483 41.1637 17.7927C41.7087 17.2371 42.448 16.925 43.2188 16.925ZM51.9375 43.5875C51.9375 42.8018 52.2437 42.0483 52.7887 41.4927C53.3337 40.9371 54.073 40.625 54.8438 40.625H68.4062C69.177 40.625 69.9163 40.9371 70.4613 41.4927C71.0063 42.0483 71.3125 42.8018 71.3125 43.5875C71.3125 44.3732 71.0063 45.1267 70.4613 45.6823C69.9163 46.2379 69.177 46.55 68.4062 46.55H54.8438C54.073 46.55 53.3337 46.2379 52.7887 45.6823C52.2437 45.1267 51.9375 44.3732 51.9375 43.5875V43.5875ZM54.8438 62.35H68.4062C69.177 62.35 69.9163 62.6621 70.4613 63.2177C71.0063 63.7733 71.3125 64.5268 71.3125 65.3125C71.3125 66.0982 71.0063 66.8517 70.4613 67.4073C69.9163 67.9629 69.177 68.275 68.4062 68.275H54.8438C54.073 68.275 53.3337 67.9629 52.7887 67.4073C52.2437 66.8517 51.9375 66.0982 51.9375 65.3125C51.9375 64.5268 52.2437 63.7733 52.7887 63.2177C53.3337 62.6621 54.073 62.35 54.8438 62.35V62.35ZM45.2725 41.731L37.5225 49.631C36.9776 50.1858 36.2389 50.4974 35.4688 50.4974C34.6986 50.4974 33.9599 50.1858 33.415 49.631L29.54 45.681C29.2545 45.4098 29.0254 45.0827 28.8666 44.7193C28.7078 44.3559 28.6223 43.9636 28.6155 43.5659C28.6086 43.1681 28.6804 42.773 28.8265 42.4041C28.9727 42.0352 29.1903 41.7001 29.4662 41.4188C29.7422 41.1375 30.0709 40.9157 30.4328 40.7667C30.7947 40.6177 31.1823 40.5445 31.5725 40.5516C31.9627 40.5586 32.3476 40.6456 32.7041 40.8076C33.0606 40.9695 33.3814 41.2029 33.6475 41.494L35.4688 43.3505L41.165 37.544C41.4311 37.2529 41.7519 37.0195 42.1084 36.8576C42.4649 36.6956 42.8498 36.6086 43.24 36.6016C43.6302 36.5945 44.0178 36.6677 44.3797 36.8167C44.7416 36.9657 45.0703 37.1875 45.3463 37.4688C45.6222 37.7501 45.8398 38.0852 45.986 38.4541C46.1321 38.823 46.2039 39.2181 46.197 39.6159C46.1902 40.0136 46.1047 40.4059 45.9459 40.7693C45.7871 41.1327 45.558 41.4598 45.2725 41.731V41.731ZM45.2725 59.269C45.8167 59.8245 46.1224 60.5774 46.1224 61.3625C46.1224 62.1476 45.8167 62.9005 45.2725 63.456L37.5225 71.356C36.9776 71.9108 36.2389 72.2224 35.4688 72.2224C34.6986 72.2224 33.9599 71.9108 33.415 71.356L29.54 67.406C29.2545 67.1348 29.0254 66.8077 28.8666 66.4443C28.7078 66.0809 28.6223 65.6886 28.6155 65.2909C28.6086 64.8931 28.6804 64.498 28.8265 64.1291C28.9727 63.7602 29.1903 63.4251 29.4662 63.1438C29.7422 62.8625 30.0709 62.6407 30.4328 62.4917C30.7947 62.3427 31.1823 62.2695 31.5725 62.2766C31.9627 62.2836 32.3476 62.3706 32.7041 62.5326C33.0606 62.6945 33.3814 62.9279 33.6475 63.219L35.4688 65.0755L41.165 59.269C41.7099 58.7142 42.4486 58.4026 43.2188 58.4026C43.9889 58.4026 44.7276 58.7142 45.2725 59.269V59.269Z" fill="black"/>
</svg>
