<svg width="30" height="30" viewBox="0 0 30 30" fill="none" xmlns="http://www.w3.org/2000/svg">
<path d="M15 11.0947C12.8496 11.0947 11.0947 12.8496 11.0947 15C11.0947 17.1504 12.8496 18.9053 15 18.9053C17.1504 18.9053 18.9053 17.1504 18.9053 15C18.9053 12.8496 17.1504 11.0947 15 11.0947ZM26.7129 15C26.7129 13.3828 26.7276 11.7803 26.6367 10.166C26.5459 8.29102 26.1182 6.62695 24.7471 5.25586C23.3731 3.88184 21.7119 3.45703 19.8369 3.36621C18.2197 3.27539 16.6172 3.29004 15.0029 3.29004C13.3858 3.29004 11.7832 3.27539 10.169 3.36621C8.29396 3.45703 6.6299 3.88477 5.25881 5.25586C3.88478 6.62988 3.45998 8.29102 3.36916 10.166C3.27834 11.7832 3.29299 13.3857 3.29299 15C3.29299 16.6143 3.27834 18.2197 3.36916 19.834C3.45998 21.709 3.88771 23.373 5.25881 24.7441C6.63283 26.1182 8.29396 26.543 10.169 26.6338C11.7861 26.7246 13.3887 26.71 15.0029 26.71C16.6201 26.71 18.2227 26.7246 19.8369 26.6338C21.7119 26.543 23.376 26.1152 24.7471 24.7441C26.1211 23.3701 26.5459 21.709 26.6367 19.834C26.7305 18.2197 26.7129 16.6172 26.7129 15V15ZM15 21.0088C11.6748 21.0088 8.99123 18.3252 8.99123 15C8.99123 11.6748 11.6748 8.99121 15 8.99121C18.3252 8.99121 21.0088 11.6748 21.0088 15C21.0088 18.3252 18.3252 21.0088 15 21.0088ZM21.2549 10.1484C20.4785 10.1484 19.8516 9.52149 19.8516 8.74512C19.8516 7.96875 20.4785 7.3418 21.2549 7.3418C22.0313 7.3418 22.6582 7.96875 22.6582 8.74512C22.6585 8.92947 22.6223 9.11206 22.5519 9.28242C22.4814 9.45278 22.3781 9.60758 22.2477 9.73793C22.1174 9.86829 21.9626 9.97165 21.7922 10.0421C21.6218 10.1125 21.4393 10.1487 21.2549 10.1484V10.1484Z" fill="black"/>
</svg>
