<svg width="55" height="55" viewBox="0 0 25 25" fill="none" xmlns="http://www.w3.org/2000/svg">
<path d="M23.0833 11.1H18.5C18.2569 11.1 18.0237 11.1948 17.8518 11.3636C17.6799 11.5324 17.5833 11.7613 17.5833 12V20.1C17.5833 20.3387 17.6799 20.5676 17.8518 20.7364C18.0237 20.9052 18.2569 21 18.5 21H23.0833C23.3264 21 23.5596 20.9052 23.7315 20.7364C23.9034 20.5676 24 20.3387 24 20.1V12C24 11.7613 23.9034 11.5324 23.7315 11.3636C23.5596 11.1948 23.3264 11.1 23.0833 11.1ZM23.0833 19.2H18.5V12.9H23.0833V19.2ZM20.3333 3H3.83333C2.81583 3 2 3.801 2 4.8V15.6C2 16.0774 2.19315 16.5352 2.53697 16.8728C2.88079 17.2104 3.3471 17.4 3.83333 17.4H10.25V19.2H8.41667V21H15.75V19.2H13.9167V17.4H15.75V15.6H3.83333V4.8H20.3333V9.3H22.1667V4.8C22.1667 4.32261 21.9735 3.86477 21.6297 3.52721C21.2859 3.18964 20.8196 3 20.3333 3Z" fill="#B42323"/>
</svg>
