<svg width="100" height="100" viewBox="0 0 100 100" fill="none" xmlns="http://www.w3.org/2000/svg">
<path d="M50 25.0875C50 23.4345 49.6744 21.7977 49.0418 20.2705C48.4093 18.7433 47.4821 17.3557 46.3132 16.1868C45.1444 15.0179 43.7567 14.0908 42.2295 13.4582C40.7023 12.8256 39.0655 12.5 37.4125 12.5H25.0875C23.421 12.4786 21.7668 12.7883 20.221 13.4112C18.6751 14.0341 17.2684 14.9578 16.0823 16.1287C14.8963 17.2996 13.9545 18.6943 13.3118 20.2321C12.669 21.7698 12.3381 23.4198 12.3381 25.0865C12.3381 26.7531 12.669 28.4032 13.3118 29.9409C13.9545 31.4786 14.8963 32.8733 16.0823 34.0442C17.2684 35.2151 18.6751 36.1388 20.221 36.7617C21.7668 37.3846 23.421 37.6944 25.0875 37.6729H27.5V43.75C27.5 43.75 50 40.7125 50 25.0875ZM38.5417 58.3333C38.5417 62.9375 34.8125 66.6667 30.2083 66.6667C25.6042 66.6667 21.875 62.9375 21.875 58.3333C21.875 53.7292 25.6042 50 30.2083 50C34.8125 50 38.5417 53.7292 38.5417 58.3333ZM30.2083 70.8333C24.2979 70.8333 12.5 73.8125 12.5 79.7229V87.5H47.9167V79.7229C47.9167 73.8104 36.1188 70.8333 30.2083 70.8333ZM69.7917 66.6667C74.3958 66.6667 78.125 62.9375 78.125 58.3333C78.125 53.7292 74.3958 50 69.7917 50C65.1875 50 61.4583 53.7292 61.4583 58.3333C61.4583 62.9375 65.1875 66.6667 69.7917 66.6667ZM69.7917 70.8333C63.8813 70.8333 52.0833 73.8125 52.0833 79.7229V87.5H87.5V79.7229C87.5 73.8104 75.7021 70.8333 69.7917 70.8333ZM66.7542 14.5833C63.4158 14.5833 60.2141 15.9095 57.8535 18.2701C55.4929 20.6307 54.1667 23.8324 54.1667 27.1708C54.1667 42.7958 74.1667 45.8333 74.1667 45.8333V39.7563H74.9125C76.579 39.7777 78.2332 39.468 79.779 38.8451C81.3249 38.2222 82.7317 37.2985 83.9177 36.1276C85.1038 34.9567 86.0455 33.5619 86.6882 32.0242C87.331 30.4865 87.6619 28.8364 87.6619 27.1698C87.6619 25.5032 87.331 23.8531 86.6882 22.3154C86.0455 20.7777 85.1038 19.3829 83.9177 18.212C82.7317 17.0411 81.3249 16.1174 79.779 15.4945C78.2332 14.8716 76.579 14.5619 74.9125 14.5833H66.7542V14.5833Z" fill="black"/>
</svg>
