<svg width="250" height="250" viewBox="0 0 100 100" fill="none" xmlns="http://www.w3.org/2000/svg">
<path d="M12.5 16.9375H33.3333C34.4384 16.9375 35.4982 17.3765 36.2796 18.1579C37.061 18.9393 37.5 19.9991 37.5 21.1042V79.4375C37.5 80.5426 37.061 81.6024 36.2796 82.3838C35.4982 83.1652 34.4384 83.6042 33.3333 83.6042H12.5C11.3949 83.6042 10.3351 83.1652 9.5537 82.3838C8.7723 81.6024 8.33331 80.5426 8.33331 79.4375V21.1042C8.33331 19.9991 8.7723 18.9393 9.5537 18.1579C10.3351 17.3765 11.3949 16.9375 12.5 16.9375V16.9375ZM12.5 62.7708V71.1042H20.8333V62.7708H12.5ZM50 29.4375H83.3333C85.5434 29.4375 87.6631 30.3155 89.2259 31.8783C90.7887 33.4411 91.6666 35.5607 91.6666 37.7708V62.7708C91.6666 64.981 90.7887 67.1006 89.2259 68.6634C87.6631 70.2262 85.5434 71.1042 83.3333 71.1042H50C47.7898 71.1042 45.6702 70.2262 44.1074 68.6634C42.5446 67.1006 41.6666 64.981 41.6666 62.7708V37.7708C41.6666 35.5607 42.5446 33.4411 44.1074 31.8783C45.6702 30.3155 47.7898 29.4375 50 29.4375ZM58.3333 75.2708H75C76.105 75.2708 77.1649 75.7098 77.9463 76.4912C78.7277 77.2726 79.1666 78.3324 79.1666 79.4375C79.1666 80.5426 78.7277 81.6024 77.9463 82.3838C77.1649 83.1652 76.105 83.6042 75 83.6042H58.3333C57.2282 83.6042 56.1684 83.1652 55.387 82.3838C54.6056 81.6024 54.1666 80.5426 54.1666 79.4375C54.1666 78.3324 54.6056 77.2726 55.387 76.4912C56.1684 75.7098 57.2282 75.2708 58.3333 75.2708V75.2708Z" fill="black"/>
</svg>
