<svg width="100" height="100" viewBox="0 0 100 100" fill="none" xmlns="http://www.w3.org/2000/svg">
<path d="M40.375 27.6875C40.375 31.3177 38.9329 34.7991 36.366 37.366C33.7991 39.9329 30.3177 41.375 26.6875 41.375C23.0573 41.375 19.5759 39.9329 17.009 37.366C14.4421 34.7991 13 31.3177 13 27.6875C13 24.0573 14.4421 20.5759 17.009 18.009C19.5759 15.4421 23.0573 14 26.6875 14C30.3177 14 33.7991 15.4421 36.366 18.009C38.9329 20.5759 40.375 24.0573 40.375 27.6875V27.6875Z" fill="black"/>
<path d="M54.0625 41.375C50.4323 41.375 46.9509 39.9329 44.384 37.366C41.8171 34.7991 40.375 31.3177 40.375 27.6875C40.375 24.0573 41.8171 20.5759 44.384 18.009C46.9509 15.4421 50.4323 14 54.0625 14C57.6927 14 61.1741 15.4421 63.741 18.009C66.3079 20.5759 67.75 24.0573 67.75 27.6875C67.75 31.3177 66.3079 34.7991 63.741 37.366C61.1741 39.9329 57.6927 41.375 54.0625 41.375Z" fill="black"/>
<path d="M54.0625 41.375H56.3438C58.557 41.3747 60.6949 42.1789 62.3593 43.6377C64.0237 45.0965 65.1013 47.1105 65.3912 49.3046L79.5806 42.9992C80.2751 42.6898 81.036 42.5588 81.794 42.6182C82.552 42.6776 83.2832 42.9255 83.921 43.3394C84.5589 43.7533 85.0832 44.3201 85.4462 44.9882C85.8093 45.6562 85.9997 46.4045 86 47.1648V81.2102C85.9993 81.97 85.8089 82.7175 85.4461 83.3851C85.0833 84.0526 84.5595 84.6189 83.9223 85.0327C83.2851 85.4465 82.5546 85.6946 81.7972 85.7545C81.0398 85.8144 80.2795 85.6842 79.5851 85.3758L65.3912 79.0704C65.1013 81.2645 64.0237 83.2785 62.3593 84.7373C60.6949 86.1961 58.557 87.0003 56.3438 87H22.125C19.7049 87 17.3839 86.0386 15.6727 84.3273C13.9614 82.6161 13 80.2951 13 77.875V50.5C13 48.0799 13.9614 45.7589 15.6727 44.0477C17.3839 42.3364 19.7049 41.375 22.125 41.375H54.0625Z" fill="black"/>
</svg>
