<svg width="408" height="421" viewBox="0 0 408 421" fill="none" xmlns="http://www.w3.org/2000/svg">
<mask id="path-1-inside-1_2_9" fill="white">
<path fill-rule="evenodd" clip-rule="evenodd" d="M0 237.5V420.5H227.5C417 420.5 407.5 274 407.5 256C407.5 238.088 407.5 227.108 397.647 210.25C407.5 193.392 407.5 182.412 407.5 164.5C407.5 146.5 417 0 227.5 0H0V183H227.5C255.069 182.336 315.47 186.868 337.269 210.25C315.47 233.632 255.069 238.164 227.5 237.5H0ZM50 367.5H227.5C390.5 369.5 365 256 365 256C365 256 342.5 290 227.5 290H50V367.5ZM50 53H227.5C390.5 51 365 164.5 365 164.5C365 164.5 342.5 130.5 227.5 130.5H50V53Z"/>
</mask>
<path fill-rule="evenodd" clip-rule="evenodd" d="M0 237.5V420.5H227.5C417 420.5 407.5 274 407.5 256C407.5 238.088 407.5 227.108 397.647 210.25C407.5 193.392 407.5 182.412 407.5 164.5C407.5 146.5 417 0 227.5 0H0V183H227.5C255.069 182.336 315.47 186.868 337.269 210.25C315.47 233.632 255.069 238.164 227.5 237.5H0ZM50 367.5H227.5C390.5 369.5 365 256 365 256C365 256 342.5 290 227.5 290H50V367.5ZM50 53H227.5C390.5 51 365 164.5 365 164.5C365 164.5 342.5 130.5 227.5 130.5H50V53Z" fill="#B42323"/>
<path d="M50 290C50 293.5 50.0004 293.5 50.0012 293.5C50.0021 293.5 50.0033 293.5 50.0049 293.5C50.0066 293.5 50.0086 293.5 50.0111 293.5C50.0136 293.5 50.0165 293.5 50.0197 293.5C50.023 293.5 50.0267 293.5 50.0308 293.5C50.0349 293.5 50.0394 293.5 50.0443 293.5C50.0492 293.5 50.0546 293.5 50.0603 293.5C50.066 293.5 50.0721 293.5 50.0787 293.5C50.0852 293.5 50.0921 293.5 50.0995 293.5C50.1068 293.5 50.1146 293.5 50.1227 293.5C50.1309 293.5 50.1394 293.5 50.1483 293.5C50.1573 293.5 50.1666 293.5 50.1764 293.5C50.1861 293.5 50.1963 293.5 50.2068 293.5C50.2174 293.5 50.2283 293.5 50.2397 293.5C50.251 293.5 50.2627 293.5 50.2749 293.5C50.287 293.5 50.2995 293.5 50.3125 293.5C50.3254 293.5 50.3387 293.5 50.3524 293.5C50.3661 293.5 50.3802 293.5 50.3947 293.5C50.4092 293.5 50.4241 293.5 50.4394 293.5C50.4547 293.5 50.4704 293.5 50.4865 293.5C50.5025 293.5 50.519 293.5 50.5358 293.5C50.5527 293.5 50.5699 293.5 50.5875 293.5C50.6052 293.5 50.6232 293.5 50.6416 293.5C50.66 293.5 50.6788 293.5 50.698 293.5C50.7171 293.5 50.7367 293.5 50.7567 293.5C50.7766 293.5 50.7969 293.5 50.8177 293.5C50.8384 293.5 50.8595 293.5 50.881 293.5C50.9025 293.5 50.9243 293.5 50.9466 293.5C50.9688 293.5 50.9915 293.5 51.0145 293.5C51.0375 293.5 51.0609 293.5 51.0847 293.5C51.1084 293.5 51.1326 293.5 51.1571 293.5C51.1817 293.5 51.2066 293.5 51.2319 293.5C51.2571 293.5 51.2828 293.5 51.3089 293.5C51.3349 293.5 51.3613 293.5 51.3881 293.5C51.4149 293.5 51.4421 293.5 51.4696 293.5C51.4972 293.5 51.5251 293.5 51.5534 293.5C51.5817 293.5 51.6103 293.5 51.6394 293.5C51.6684 293.5 51.6978 293.5 51.7276 293.5C51.7574 293.5 51.7876 293.5 51.8181 293.5C51.8486 293.5 51.8795 293.5 51.9108 293.5C51.942 293.5 51.9736 293.5 52.0056 293.5C52.0376 293.5 52.07 293.5 52.1027 293.5C52.1355 293.5 52.1686 293.5 52.202 293.5C52.2355 293.5 52.2693 293.5 52.3035 293.5C52.3377 293.5 52.3723 293.5 52.4072 293.5C52.4421 293.5 52.4774 293.5 52.5131 293.5C52.5487 293.5 52.5847 293.5 52.6211 293.5C52.6575 293.5 52.6942 293.5 52.7313 293.5C52.7684 293.5 52.8058 293.5 52.8437 293.5C52.8815 293.5 52.9196 293.5 52.9582 293.5C52.9967 293.5 53.0356 293.5 53.0748 293.5C53.1141 293.5 53.1537 293.5 53.1936 293.5C53.2336 293.5 53.2739 293.5 53.3146 293.5C53.3552 293.5 53.3962 293.5 53.4376 293.5C53.479 293.5 53.5207 293.5 53.5628 293.5C53.6049 293.5 53.6473 293.5 53.6901 293.5C53.7329 293.5 53.776 293.5 53.8195 293.5C53.863 293.5 53.9068 293.5 53.951 293.5C53.9952 293.5 54.0397 293.5 54.0846 293.5C54.1295 293.5 54.1747 293.5 54.2203 293.5C54.2659 293.5 54.3118 293.5 54.3581 293.5C54.4044 293.5 54.451 293.5 54.4979 293.5C54.5449 293.5 54.5922 293.5 54.6399 293.5C54.6875 293.5 54.7355 293.5 54.7838 293.5C54.8322 293.5 54.8808 293.5 54.9299 293.5C54.9789 293.5 55.0282 293.5 55.0779 293.5C55.1276 293.5 55.1777 293.5 55.2281 293.5C55.2785 293.5 55.3292 293.5 55.3802 293.5C55.4313 293.5 55.4827 293.5 55.5344 293.5C55.5862 293.5 55.6382 293.5 55.6906 293.5C55.743 293.5 55.7958 293.5 55.8489 293.5C55.9019 293.5 55.9554 293.5 56.0091 293.5C56.0628 293.5 56.1169 293.5 56.1713 293.5C56.2258 293.5 56.2805 293.5 56.3356 293.5C56.3907 293.5 56.4461 293.5 56.5018 293.5C56.5575 293.5 56.6136 293.5 56.67 293.5C56.7264 293.5 56.7831 293.5 56.8402 293.5C56.8973 293.5 56.9546 293.5 57.0124 293.5C57.0701 293.5 57.1281 293.5 57.1865 293.5C57.2448 293.5 57.3035 293.5 57.3625 293.5C57.4216 293.5 57.4809 293.5 57.5406 293.5C57.6002 293.5 57.6602 293.5 57.7205 293.5C57.7809 293.5 57.8415 293.5 57.9024 293.5C57.9634 293.5 58.0247 293.5 58.0863 293.5C58.1479 293.5 58.2098 293.5 58.272 293.5C58.3343 293.5 58.3968 293.5 58.4597 293.5C58.5226 293.5 58.5858 293.5 58.6493 293.5C58.7128 293.5 58.7767 293.5 58.8408 293.5C58.905 293.5 58.9694 293.5 59.0342 293.5C59.099 293.5 59.1641 293.5 59.2295 293.5C59.2949 293.5 59.3606 293.5 59.4266 293.5C59.4927 293.5 59.559 293.5 59.6257 293.5C59.6924 293.5 59.7593 293.5 59.8266 293.5C59.8939 293.5 59.9615 293.5 60.0294 293.5C60.0973 293.5 60.1655 293.5 60.234 293.5C60.3025 293.5 60.3714 293.5 60.4405 293.5C60.5097 293.5 60.5791 293.5 60.6489 293.5C60.7186 293.5 60.7887 293.5 60.859 293.5C60.9294 293.5 61.0001 293.5 61.071 293.5C61.142 293.5 61.2133 293.5 61.2849 293.5C61.3564 293.5 61.4283 293.5 61.5005 293.5C61.5727 293.5 61.6452 293.5 61.718 293.5C61.7908 293.5 61.8639 293.5 61.9372 293.5C62.0106 293.5 62.0843 293.5 62.1583 293.5C62.2323 293.5 62.3066 293.5 62.3812 293.5C62.4558 293.5 62.5306 293.5 62.6058 293.5C62.681 293.5 62.7565 293.5 62.8322 293.5C62.908 293.5 62.9841 293.5 63.0604 293.5C63.1368 293.5 63.2134 293.5 63.2904 293.5C63.3673 293.5 63.4446 293.5 63.5221 293.5C63.5997 293.5 63.6775 293.5 63.7556 293.5C63.8337 293.5 63.9121 293.5 63.9908 293.5C64.0695 293.5 64.1485 293.5 64.2278 293.5C64.3071 293.5 64.3866 293.5 64.4665 293.5C64.5463 293.5 64.6265 293.5 64.7069 293.5C64.7873 293.5 64.868 293.5 64.949 293.5C65.03 293.5 65.1113 293.5 65.1929 293.5C65.2745 293.5 65.3563 293.5 65.4385 293.5C65.5206 293.5 65.603 293.5 65.6857 293.5C65.7684 293.5 65.8514 293.5 65.9347 293.5C66.0179 293.5 66.1015 293.5 66.1853 293.5C66.2692 293.5 66.3533 293.5 66.4376 293.5C66.522 293.5 66.6067 293.5 66.6916 293.5C66.7766 293.5 66.8618 293.5 66.9473 293.5C67.0328 293.5 67.1186 293.5 67.2046 293.5C67.2907 293.5 67.377 293.5 67.4636 293.5C67.5502 293.5 67.6371 293.5 67.7243 293.5C67.8114 293.5 67.8988 293.5 67.9865 293.5C68.0742 293.5 68.1622 293.5 68.2504 293.5C68.3387 293.5 68.4272 293.5 68.516 293.5C68.6047 293.5 68.6938 293.5 68.7831 293.5C68.8724 293.5 68.962 293.5 69.0519 293.5C69.1417 293.5 69.2319 293.5 69.3223 293.5C69.4127 293.5 69.5033 293.5 69.5942 293.5C69.6852 293.5 69.7764 293.5 69.8678 293.5C69.9593 293.5 70.051 293.5 70.143 293.5C70.235 293.5 70.3272 293.5 70.4197 293.5C70.5122 293.5 70.605 293.5 70.6981 293.5C70.7911 293.5 70.8844 293.5 70.9779 293.5C71.0715 293.5 71.1653 293.5 71.2594 293.5C71.3535 293.5 71.4478 293.5 71.5424 293.5C71.637 293.5 71.7319 293.5 71.827 293.5C71.9221 293.5 72.0174 293.5 72.1131 293.5C72.2087 293.5 72.3046 293.5 72.4007 293.5C72.4968 293.5 72.5932 293.5 72.6899 293.5C72.7865 293.5 72.8834 293.5 72.9806 293.5C73.0777 293.5 73.1751 293.5 73.2728 293.5C73.3704 293.5 73.4683 293.5 73.5665 293.5C73.6646 293.5 73.763 293.5 73.8617 293.5C73.9604 293.5 74.0593 293.5 74.1584 293.5C74.2576 293.5 74.357 293.5 74.4566 293.5C74.5563 293.5 74.6562 293.5 74.7563 293.5C74.8565 293.5 74.9568 293.5 75.0575 293.5C75.1581 293.5 75.259 293.5 75.3601 293.5C75.4612 293.5 75.5626 293.5 75.6642 293.5C75.7658 293.5 75.8677 293.5 75.9698 293.5C76.0719 293.5 76.1742 293.5 76.2768 293.5C76.3794 293.5 76.4822 293.5 76.5852 293.5C76.6883 293.5 76.7916 293.5 76.8951 293.5C76.9987 293.5 77.1024 293.5 77.2064 293.5C77.3105 293.5 77.4147 293.5 77.5192 293.5C77.6237 293.5 77.7284 293.5 77.8334 293.5C77.9383 293.5 78.0435 293.5 78.1489 293.5C78.2544 293.5 78.36 293.5 78.4659 293.5C78.5718 293.5 78.6779 293.5 78.7843 293.5C78.8906 293.5 78.9972 293.5 79.104 293.5C79.2109 293.5 79.3179 293.5 79.4252 293.5C79.5325 293.5 79.64 293.5 79.7477 293.5C79.8555 293.5 79.9634 293.5 80.0716 293.5C80.1798 293.5 80.2883 293.5 80.3969 293.5C80.5056 293.5 80.6144 293.5 80.7235 293.5C80.8326 293.5 80.942 293.5 81.0515 293.5C81.1611 293.5 81.2708 293.5 81.3808 293.5C81.4908 293.5 81.6011 293.5 81.7115 293.5C81.8219 293.5 81.9326 293.5 82.0435 293.5C82.1544 293.5 82.2655 293.5 82.3768 293.5C82.4881 293.5 82.5997 293.5 82.7115 293.5C82.8232 293.5 82.9352 293.5 83.0474 293.5C83.1596 293.5 83.272 293.5 83.3847 293.5C83.4973 293.5 83.6102 293.5 83.7232 293.5C83.8363 293.5 83.9496 293.5 84.0631 293.5C84.1766 293.5 84.2903 293.5 84.4042 293.5C84.5181 293.5 84.6323 293.5 84.7466 293.5C84.861 293.5 84.9755 293.5 85.0903 293.5C85.2051 293.5 85.3201 293.5 85.4353 293.5C85.5505 293.5 85.6659 293.5 85.7815 293.5C85.8971 293.5 86.0129 293.5 86.129 293.5C86.245 293.5 86.3612 293.5 86.4777 293.5C86.5941 293.5 86.7108 293.5 86.8276 293.5C86.9445 293.5 87.0616 293.5 87.1788 293.5C87.2961 293.5 87.4136 293.5 87.5312 293.5C87.6489 293.5 87.7668 293.5 87.8849 293.5C88.003 293.5 88.1213 293.5 88.2397 293.5C88.3582 293.5 88.4769 293.5 88.5958 293.5C88.7147 293.5 88.8338 293.5 88.9531 293.5C89.0723 293.5 89.1918 293.5 89.3115 293.5C89.4312 293.5 89.5511 293.5 89.6712 293.5C89.7912 293.5 89.9115 293.5 90.032 293.5C90.1525 293.5 90.2731 293.5 90.394 293.5C90.5148 293.5 90.6359 293.5 90.7571 293.5C90.8784 293.5 90.9998 293.5 91.1215 293.5C91.2431 293.5 91.3649 293.5 91.487 293.5C91.609 293.5 91.7312 293.5 91.8536 293.5C91.976 293.5 92.0986 293.5 92.2214 293.5C92.3441 293.5 92.4671 293.5 92.5903 293.5C92.7134 293.5 92.8368 293.5 92.9603 293.5C93.0838 293.5 93.2076 293.5 93.3315 293.5C93.4554 293.5 93.5795 293.5 93.7037 293.5C93.828 293.5 93.9525 293.5 94.0771 293.5C94.2018 293.5 94.3266 293.5 94.4516 293.5C94.5766 293.5 94.7018 293.5 94.8272 293.5C94.9526 293.5 95.0781 293.5 95.2039 293.5C95.3296 293.5 95.4555 293.5 95.5816 293.5C95.7077 293.5 95.834 293.5 95.9604 293.5C96.0869 293.5 96.2135 293.5 96.3403 293.5C96.4671 293.5 96.5941 293.5 96.7213 293.5C96.8485 293.5 96.9758 293.5 97.1033 293.5C97.2308 293.5 97.3585 293.5 97.4864 293.5C97.6142 293.5 97.7423 293.5 97.8705 293.5C97.9987 293.5 98.1271 293.5 98.2556 293.5C98.3842 293.5 98.5129 293.5 98.6418 293.5C98.7707 293.5 98.8998 293.5 99.029 293.5C99.1582 293.5 99.2876 293.5 99.4172 293.5C99.5468 293.5 99.6765 293.5 99.8064 293.5C99.9364 293.5 100.066 293.5 100.197 293.5C100.327 293.5 100.457 293.5 100.588 293.5C100.718 293.5 100.849 293.5 100.98 293.5C101.111 293.5 101.242 293.5 101.373 293.5C101.505 293.5 101.636 293.5 101.767 293.5C101.899 293.5 102.031 293.5 102.163 293.5C102.295 293.5 102.427 293.5 102.559 293.5C102.691 293.5 102.823 293.5 102.956 293.5C103.088 293.5 103.221 293.5 103.354 293.5C103.487 293.5 103.62 293.5 103.753 293.5C103.886 293.5 104.019 293.5 104.153 293.5C104.286 293.5 104.42 293.5 104.554 293.5C104.687 293.5 104.821 293.5 104.955 293.5C105.089 293.5 105.224 293.5 105.358 293.5C105.492 293.5 105.627 293.5 105.762 293.5C105.896 293.5 106.031 293.5 106.166 293.5C106.301 293.5 106.436 293.5 106.571 293.5C106.707 293.5 106.842 293.5 106.978 293.5C107.113 293.5 107.249 293.5 107.385 293.5C107.521 293.5 107.657 293.5 107.793 293.5C107.929 293.5 108.065 293.5 108.202 293.5C108.338 293.5 108.475 293.5 108.612 293.5C108.748 293.5 108.885 293.5 109.022 293.5C109.159 293.5 109.297 293.5 109.434 293.5C109.571 293.5 109.709 293.5 109.846 293.5C109.984 293.5 110.121 293.5 110.259 293.5C110.397 293.5 110.535 293.5 110.673 293.5C110.812 293.5 110.95 293.5 111.088 293.5C111.227 293.5 111.365 293.5 111.504 293.5C111.643 293.5 111.781 293.5 111.92 293.5C112.059 293.5 112.198 293.5 112.338 293.5C112.477 293.5 112.616 293.5 112.756 293.5C112.895 293.5 113.035 293.5 113.175 293.5C113.314 293.5 113.454 293.5 113.594 293.5C113.734 293.5 113.874 293.5 114.015 293.5C114.155 293.5 114.295 293.5 114.436 293.5C114.576 293.5 114.717 293.5 114.858 293.5C114.999 293.5 115.14 293.5 115.281 293.5C115.422 293.5 115.563 293.5 115.704 293.5C115.845 293.5 115.987 293.5 116.128 293.5C116.27 293.5 116.412 293.5 116.553 293.5C116.695 293.5 116.837 293.5 116.979 293.5C117.121 293.5 117.263 293.5 117.406 293.5C117.548 293.5 117.69 293.5 117.833 293.5C117.975 293.5 118.118 293.5 118.261 293.5C118.403 293.5 118.546 293.5 118.689 293.5C118.832 293.5 118.975 293.5 119.118 293.5C119.262 293.5 119.405 293.5 119.548 293.5C119.692 293.5 119.835 293.5 119.979 293.5C120.123 293.5 120.267 293.5 120.41 293.5C120.554 293.5 120.698 293.5 120.843 293.5C120.987 293.5 121.131 293.5 121.275 293.5C121.42 293.5 121.564 293.5 121.709 293.5C121.853 293.5 121.998 293.5 122.143 293.5C122.287 293.5 122.432 293.5 122.577 293.5C122.722 293.5 122.867 293.5 123.013 293.5C123.158 293.5 123.303 293.5 123.448 293.5C123.594 293.5 123.739 293.5 123.885 293.5C124.031 293.5 124.176 293.5 124.322 293.5C124.468 293.5 124.614 293.5 124.76 293.5C124.906 293.5 125.052 293.5 125.198 293.5C125.345 293.5 125.491 293.5 125.638 293.5C125.784 293.5 125.93 293.5 126.077 293.5C126.224 293.5 126.37 293.5 126.517 293.5C126.664 293.5 126.811 293.5 126.958 293.5C127.105 293.5 127.252 293.5 127.399 293.5C127.547 293.5 127.694 293.5 127.841 293.5C127.989 293.5 128.136 293.5 128.284 293.5C128.432 293.5 128.579 293.5 128.727 293.5C128.875 293.5 129.023 293.5 129.171 293.5C129.319 293.5 129.467 293.5 129.615 293.5C129.763 293.5 129.911 293.5 130.059 293.5C130.208 293.5 130.356 293.5 130.505 293.5C130.653 293.5 130.802 293.5 130.95 293.5C131.099 293.5 131.248 293.5 131.397 293.5C131.545 293.5 131.694 293.5 131.843 293.5C131.992 293.5 132.141 293.5 132.291 293.5C132.44 293.5 132.589 293.5 132.738 293.5C132.888 293.5 133.037 293.5 133.187 293.5C133.336 293.5 133.486 293.5 133.635 293.5C133.785 293.5 133.935 293.5 134.085 293.5C134.234 293.5 134.384 293.5 134.534 293.5C134.684 293.5 134.834 293.5 134.985 293.5C135.135 293.5 135.285 293.5 135.435 293.5C135.585 293.5 135.736 293.5 135.886 293.5C136.037 293.5 136.187 293.5 136.338 293.5C136.488 293.5 136.639 293.5 136.79 293.5C136.94 293.5 137.091 293.5 137.242 293.5C137.393 293.5 137.544 293.5 137.695 293.5C137.846 293.5 137.997 293.5 138.148 293.5C138.299 293.5 138.45 293.5 138.602 293.5C138.753 293.5 138.904 293.5 139.056 293.5C139.207 293.5 139.359 293.5 139.51 293.5C139.662 293.5 139.813 293.5 139.965 293.5C140.117 293.5 140.268 293.5 140.42 293.5C140.572 293.5 140.724 293.5 140.876 293.5C141.028 293.5 141.18 293.5 141.332 293.5C141.484 293.5 141.636 293.5 141.788 293.5C141.94 293.5 142.093 293.5 142.245 293.5C142.397 293.5 142.55 293.5 142.702 293.5C142.854 293.5 143.007 293.5 143.159 293.5C143.312 293.5 143.464 293.5 143.617 293.5C143.77 293.5 143.922 293.5 144.075 293.5C144.228 293.5 144.381 293.5 144.534 293.5C144.686 293.5 144.839 293.5 144.992 293.5C145.145 293.5 145.298 293.5 145.451 293.5C145.604 293.5 145.757 293.5 145.911 293.5C146.064 293.5 146.217 293.5 146.37 293.5C146.523 293.5 146.677 293.5 146.83 293.5C146.984 293.5 147.137 293.5 147.29 293.5C147.444 293.5 147.597 293.5 147.751 293.5C147.904 293.5 148.058 293.5 148.212 293.5C148.365 293.5 148.519 293.5 148.673 293.5C148.826 293.5 148.98 293.5 149.134 293.5C149.288 293.5 149.442 293.5 149.596 293.5C149.749 293.5 149.903 293.5 150.057 293.5C150.211 293.5 150.365 293.5 150.519 293.5C150.673 293.5 150.828 293.5 150.982 293.5C151.136 293.5 151.29 293.5 151.444 293.5C151.598 293.5 151.753 293.5 151.907 293.5C152.061 293.5 152.215 293.5 152.37 293.5C152.524 293.5 152.679 293.5 152.833 293.5C152.987 293.5 153.142 293.5 153.296 293.5C153.451 293.5 153.605 293.5 153.76 293.5C153.914 293.5 154.069 293.5 154.224 293.5C154.378 293.5 154.533 293.5 154.688 293.5C154.842 293.5 154.997 293.5 155.152 293.5C155.306 293.5 155.461 293.5 155.616 293.5C155.771 293.5 155.925 293.5 156.08 293.5C156.235 293.5 156.39 293.5 156.545 293.5C156.7 293.5 156.855 293.5 157.01 293.5C157.165 293.5 157.32 293.5 157.475 293.5C157.629 293.5 157.784 293.5 157.94 293.5C158.095 293.5 158.25 293.5 158.405 293.5C158.56 293.5 158.715 293.5 158.87 293.5C159.025 293.5 159.18 293.5 159.335 293.5C159.49 293.5 159.646 293.5 159.801 293.5C159.956 293.5 160.111 293.5 160.266 293.5C160.422 293.5 160.577 293.5 160.732 293.5C160.887 293.5 161.043 293.5 161.198 293.5C161.353 293.5 161.508 293.5 161.664 293.5C161.819 293.5 161.974 293.5 162.13 293.5C162.285 293.5 162.44 293.5 162.596 293.5C162.751 293.5 162.906 293.5 163.062 293.5C163.217 293.5 163.372 293.5 163.528 293.5C163.683 293.5 163.839 293.5 163.994 293.5C164.149 293.5 164.305 293.5 164.46 293.5C164.616 293.5 164.771 293.5 164.926 293.5C165.082 293.5 165.237 293.5 165.393 293.5C165.548 293.5 165.704 293.5 165.859 293.5C166.015 293.5 166.17 293.5 166.325 293.5C166.481 293.5 166.636 293.5 166.792 293.5C166.947 293.5 167.103 293.5 167.258 293.5C167.414 293.5 167.569 293.5 167.724 293.5C167.88 293.5 168.035 293.5 168.191 293.5C168.346 293.5 168.502 293.5 168.657 293.5C168.813 293.5 168.968 293.5 169.123 293.5C169.279 293.5 169.434 293.5 169.59 293.5C169.745 293.5 169.9 293.5 170.056 293.5C170.211 293.5 170.367 293.5 170.522 293.5C170.677 293.5 170.833 293.5 170.988 293.5C171.144 293.5 171.299 293.5 171.454 293.5C171.61 293.5 171.765 293.5 171.92 293.5C172.076 293.5 172.231 293.5 172.386 293.5C172.542 293.5 172.697 293.5 172.852 293.5C173.007 293.5 173.163 293.5 173.318 293.5C173.473 293.5 173.628 293.5 173.784 293.5C173.939 293.5 174.094 293.5 174.249 293.5C174.405 293.5 174.56 293.5 174.715 293.5C174.87 293.5 175.025 293.5 175.18 293.5C175.335 293.5 175.49 293.5 175.646 293.5C175.801 293.5 175.956 293.5 176.111 293.5C176.266 293.5 176.421 293.5 176.576 293.5C176.731 293.5 176.886 293.5 177.041 293.5C177.196 293.5 177.351 293.5 177.506 293.5C177.66 293.5 177.815 293.5 177.97 293.5C178.125 293.5 178.28 293.5 178.435 293.5C178.589 293.5 178.744 293.5 178.899 293.5C179.054 293.5 179.208 293.5 179.363 293.5C179.518 293.5 179.672 293.5 179.827 293.5C179.982 293.5 180.136 293.5 180.291 293.5C180.445 293.5 180.6 293.5 180.754 293.5C180.909 293.5 181.063 293.5 181.218 293.5C181.372 293.5 181.527 293.5 181.681 293.5C181.836 293.5 181.99 293.5 182.144 293.5C182.298 293.5 182.453 293.5 182.607 293.5C182.761 293.5 182.915 293.5 183.07 293.5C183.224 293.5 183.378 293.5 183.532 293.5C183.686 293.5 183.84 293.5 183.994 293.5C184.148 293.5 184.302 293.5 184.456 293.5C184.61 293.5 184.764 293.5 184.918 293.5C185.071 293.5 185.225 293.5 185.379 293.5C185.533 293.5 185.686 293.5 185.84 293.5C185.994 293.5 186.147 293.5 186.301 293.5C186.455 293.5 186.608 293.5 186.762 293.5C186.915 293.5 187.068 293.5 187.222 293.5C187.375 293.5 187.529 293.5 187.682 293.5C187.835 293.5 187.988 293.5 188.142 293.5C188.295 293.5 188.448 293.5 188.601 293.5C188.754 293.5 188.907 293.5 189.06 293.5C189.213 293.5 189.366 293.5 189.519 293.5C189.672 293.5 189.825 293.5 189.978 293.5C190.13 293.5 190.283 293.5 190.436 293.5C190.588 293.5 190.741 293.5 190.894 293.5C191.046 293.5 191.199 293.5 191.351 293.5C191.504 293.5 191.656 293.5 191.808 293.5C191.961 293.5 192.113 293.5 192.265 293.5C192.417 293.5 192.57 293.5 192.722 293.5C192.874 293.5 193.026 293.5 193.178 293.5C193.33 293.5 193.482 293.5 193.633 293.5C193.785 293.5 193.937 293.5 194.089 293.5C194.241 293.5 194.392 293.5 194.544 293.5C194.695 293.5 194.847 293.5 194.998 293.5C195.15 293.5 195.301 293.5 195.453 293.5C195.604 293.5 195.755 293.5 195.906 293.5C196.058 293.5 196.209 293.5 196.36 293.5C196.511 293.5 196.662 293.5 196.813 293.5C196.964 293.5 197.114 293.5 197.265 293.5C197.416 293.5 197.567 293.5 197.717 293.5C197.868 293.5 198.019 293.5 198.169 293.5C198.319 293.5 198.47 293.5 198.62 293.5C198.771 293.5 198.921 293.5 199.071 293.5C199.221 293.5 199.371 293.5 199.521 293.5C199.671 293.5 199.821 293.5 199.971 293.5C200.121 293.5 200.271 293.5 200.421 293.5C200.57 293.5 200.72 293.5 200.869 293.5C201.019 293.5 201.169 293.5 201.318 293.5C201.467 293.5 201.617 293.5 201.766 293.5C201.915 293.5 202.064 293.5 202.213 293.5C202.362 293.5 202.511 293.5 202.66 293.5C202.809 293.5 202.958 293.5 203.107 293.5C203.255 293.5 203.404 293.5 203.553 293.5C203.701 293.5 203.85 293.5 203.998 293.5C204.146 293.5 204.295 293.5 204.443 293.5C204.591 293.5 204.739 293.5 204.887 293.5C205.035 293.5 205.183 293.5 205.331 293.5C205.479 293.5 205.627 293.5 205.774 293.5C205.922 293.5 206.07 293.5 206.217 293.5C206.364 293.5 206.512 293.5 206.659 293.5C206.806 293.5 206.954 293.5 207.101 293.5C207.248 293.5 207.395 293.5 207.542 293.5C207.689 293.5 207.835 293.5 207.982 293.5C208.129 293.5 208.275 293.5 208.422 293.5C208.568 293.5 208.715 293.5 208.861 293.5C209.008 293.5 209.154 293.5 209.3 293.5C209.446 293.5 209.592 293.5 209.738 293.5C209.884 293.5 210.03 293.5 210.175 293.5C210.321 293.5 210.467 293.5 210.612 293.5C210.758 293.5 210.903 293.5 211.048 293.5C211.194 293.5 211.339 293.5 211.484 293.5C211.629 293.5 211.774 293.5 211.919 293.5C212.064 293.5 212.208 293.5 212.353 293.5C212.498 293.5 212.642 293.5 212.787 293.5C212.931 293.5 213.075 293.5 213.219 293.5C213.364 293.5 213.508 293.5 213.652 293.5C213.796 293.5 213.94 293.5 214.083 293.5C214.227 293.5 214.371 293.5 214.514 293.5C214.658 293.5 214.801 293.5 214.944 293.5C215.088 293.5 215.231 293.5 215.374 293.5C215.517 293.5 215.66 293.5 215.803 293.5C215.946 293.5 216.088 293.5 216.231 293.5C216.374 293.5 216.516 293.5 216.658 293.5C216.801 293.5 216.943 293.5 217.085 293.5C217.227 293.5 217.369 293.5 217.511 293.5C217.653 293.5 217.795 293.5 217.936 293.5C218.078 293.5 218.219 293.5 218.361 293.5C218.502 293.5 218.644 293.5 218.785 293.5C218.926 293.5 219.067 293.5 219.208 293.5C219.349 293.5 219.489 293.5 219.63 293.5C219.771 293.5 219.911 293.5 220.051 293.5C220.192 293.5 220.332 293.5 220.472 293.5C220.612 293.5 220.752 293.5 220.892 293.5C221.032 293.5 221.172 293.5 221.311 293.5C221.451 293.5 221.59 293.5 221.73 293.5C221.869 293.5 222.008 293.5 222.147 293.5C222.286 293.5 222.425 293.5 222.564 293.5C222.703 293.5 222.841 293.5 222.98 293.5C223.118 293.5 223.257 293.5 223.395 293.5C223.533 293.5 223.671 293.5 223.809 293.5C223.947 293.5 224.085 293.5 224.223 293.5C224.361 293.5 224.498 293.5 224.635 293.5C224.773 293.5 224.91 293.5 225.047 293.5C225.184 293.5 225.321 293.5 225.458 293.5C225.595 293.5 225.732 293.5 225.868 293.5C226.005 293.5 226.141 293.5 226.278 293.5C226.414 293.5 226.55 293.5 226.686 293.5C226.822 293.5 226.958 293.5 227.093 293.5C227.229 293.5 227.365 293.5 227.5 293.5V286.5C227.365 286.5 227.229 286.5 227.093 286.5C226.958 286.5 226.822 286.5 226.686 286.5C226.55 286.5 226.414 286.5 226.278 286.5C226.141 286.5 226.005 286.5 225.868 286.5C225.732 286.5 225.595 286.5 225.458 286.5C225.321 286.5 225.184 286.5 225.047 286.5C224.91 286.5 224.773 286.5 224.635 286.5C224.498 286.5 224.361 286.5 224.223 286.5C224.085 286.5 223.947 286.5 223.809 286.5C223.671 286.5 223.533 286.5 223.395 286.5C223.257 286.5 223.118 286.5 222.98 286.5C222.841 286.5 222.703 286.5 222.564 286.5C222.425 286.5 222.286 286.5 222.147 286.5C222.008 286.5 221.869 286.5 221.73 286.5C221.59 286.5 221.451 286.5 221.311 286.5C221.172 286.5 221.032 286.5 220.892 286.5C220.752 286.5 220.612 286.5 220.472 286.5C220.332 286.5 220.192 286.5 220.051 286.5C219.911 286.5 219.771 286.5 219.63 286.5C219.489 286.5 219.349 286.5 219.208 286.5C219.067 286.5 218.926 286.5 218.785 286.5C218.644 286.5 218.502 286.5 218.361 286.5C218.219 286.5 218.078 286.5 217.936 286.5C217.795 286.5 217.653 286.5 217.511 286.5C217.369 286.5 217.227 286.5 217.085 286.5C216.943 286.5 216.801 286.5 216.658 286.5C216.516 286.5 216.374 286.5 216.231 286.5C216.088 286.5 215.946 286.5 215.803 286.5C215.66 286.5 215.517 286.5 215.374 286.5C215.231 286.5 215.088 286.5 214.944 286.5C214.801 286.5 214.658 286.5 214.514 286.5C214.371 286.5 214.227 286.5 214.083 286.5C213.94 286.5 213.796 286.5 213.652 286.5C213.508 286.5 213.364 286.5 213.219 286.5C213.075 286.5 212.931 286.5 212.787 286.5C212.642 286.5 212.498 286.5 212.353 286.5C212.208 286.5 212.064 286.5 211.919 286.5C211.774 286.5 211.629 286.5 211.484 286.5C211.339 286.5 211.194 286.5 211.048 286.5C210.903 286.5 210.758 286.5 210.612 286.5C210.467 286.5 210.321 286.5 210.175 286.5C210.03 286.5 209.884 286.5 209.738 286.5C209.592 286.5 209.446 286.5 209.3 286.5C209.154 286.5 209.008 286.5 208.861 286.5C208.715 286.5 208.568 286.5 208.422 286.5C208.275 286.5 208.129 286.5 207.982 286.5C207.835 286.5 207.689 286.5 207.542 286.5C207.395 286.5 207.248 286.5 207.101 286.5C206.954 286.5 206.806 286.5 206.659 286.5C206.512 286.5 206.364 286.5 206.217 286.5C206.07 286.5 205.922 286.5 205.774 286.5C205.627 286.5 205.479 286.5 205.331 286.5C205.183 286.5 205.035 286.5 204.887 286.5C204.739 286.5 204.591 286.5 204.443 286.5C204.295 286.5 204.146 286.5 203.998 286.5C203.85 286.5 203.701 286.5 203.553 286.5C203.404 286.5 203.255 286.5 203.107 286.5C202.958 286.5 202.809 286.5 202.66 286.5C202.511 286.5 202.362 286.5 202.213 286.5C202.064 286.5 201.915 286.5 201.766 286.5C201.617 286.5 201.467 286.5 201.318 286.5C201.169 286.5 201.019 286.5 200.869 286.5C200.72 286.5 200.57 286.5 200.421 286.5C200.271 286.5 200.121 286.5 199.971 286.5C199.821 286.5 199.671 286.5 199.521 286.5C199.371 286.5 199.221 286.5 199.071 286.5C198.921 286.5 198.771 286.5 198.62 286.5C198.47 286.5 198.319 286.5 198.169 286.5C198.019 286.5 197.868 286.5 197.717 286.5C197.567 286.5 197.416 286.5 197.265 286.5C197.114 286.5 196.964 286.5 196.813 286.5C196.662 286.5 196.511 286.5 196.36 286.5C196.209 286.5 196.058 286.5 195.906 286.5C195.755 286.5 195.604 286.5 195.453 286.5C195.301 286.5 195.15 286.5 194.998 286.5C194.847 286.5 194.695 286.5 194.544 286.5C194.392 286.5 194.241 286.5 194.089 286.5C193.937 286.5 193.785 286.5 193.633 286.5C193.482 286.5 193.33 286.5 193.178 286.5C193.026 286.5 192.874 286.5 192.722 286.5C192.57 286.5 192.417 286.5 192.265 286.5C192.113 286.5 191.961 286.5 191.808 286.5C191.656 286.5 191.504 286.5 191.351 286.5C191.199 286.5 191.046 286.5 190.894 286.5C190.741 286.5 190.588 286.5 190.436 286.5C190.283 286.5 190.13 286.5 189.978 286.5C189.825 286.5 189.672 286.5 189.519 286.5C189.366 286.5 189.213 286.5 189.06 286.5C188.907 286.5 188.754 286.5 188.601 286.5C188.448 286.5 188.295 286.5 188.142 286.5C187.988 286.5 187.835 286.5 187.682 286.5C187.529 286.5 187.375 286.5 187.222 286.5C187.068 286.5 186.915 286.5 186.762 286.5C186.608 286.5 186.455 286.5 186.301 286.5C186.147 286.5 185.994 286.5 185.84 286.5C185.686 286.5 185.533 286.5 185.379 286.5C185.225 286.5 185.071 286.5 184.918 286.5C184.764 286.5 184.61 286.5 184.456 286.5C184.302 286.5 184.148 286.5 183.994 286.5C183.84 286.5 183.686 286.5 183.532 286.5C183.378 286.5 183.224 286.5 183.07 286.5C182.915 286.5 182.761 286.5 182.607 286.5C182.453 286.5 182.298 286.5 182.144 286.5C181.99 286.5 181.836 286.5 181.681 286.5C181.527 286.5 181.372 286.5 181.218 286.5C181.063 286.5 180.909 286.5 180.754 286.5C180.6 286.5 180.445 286.5 180.291 286.5C180.136 286.5 179.982 286.5 179.827 286.5C179.672 286.5 179.518 286.5 179.363 286.5C179.208 286.5 179.054 286.5 178.899 286.5C178.744 286.5 178.589 286.5 178.435 286.5C178.28 286.5 178.125 286.5 177.97 286.5C177.815 286.5 177.66 286.5 177.506 286.5C177.351 286.5 177.196 286.5 177.041 286.5C176.886 286.5 176.731 286.5 176.576 286.5C176.421 286.5 176.266 286.5 176.111 286.5C175.956 286.5 175.801 286.5 175.646 286.5C175.49 286.5 175.335 286.5 175.18 286.5C175.025 286.5 174.87 286.5 174.715 286.5C174.56 286.5 174.405 286.5 174.249 286.5C174.094 286.5 173.939 286.5 173.784 286.5C173.628 286.5 173.473 286.5 173.318 286.5C173.163 286.5 173.007 286.5 172.852 286.5C172.697 286.5 172.542 286.5 172.386 286.5C172.231 286.5 172.076 286.5 171.92 286.5C171.765 286.5 171.61 286.5 171.454 286.5C171.299 286.5 171.144 286.5 170.988 286.5C170.833 286.5 170.677 286.5 170.522 286.5C170.367 286.5 170.211 286.5 170.056 286.5C169.9 286.5 169.745 286.5 169.59 286.5C169.434 286.5 169.279 286.5 169.123 286.5C168.968 286.5 168.813 286.5 168.657 286.5C168.502 286.5 168.346 286.5 168.191 286.5C168.035 286.5 167.88 286.5 167.724 286.5C167.569 286.5 167.414 286.5 167.258 286.5C167.103 286.5 166.947 286.5 166.792 286.5C166.636 286.5 166.481 286.5 166.325 286.5C166.17 286.5 166.015 286.5 165.859 286.5C165.704 286.5 165.548 286.5 165.393 286.5C165.237 286.5 165.082 286.5 164.926 286.5C164.771 286.5 164.616 286.5 164.46 286.5C164.305 286.5 164.149 286.5 163.994 286.5C163.839 286.5 163.683 286.5 163.528 286.5C163.372 286.5 163.217 286.5 163.062 286.5C162.906 286.5 162.751 286.5 162.596 286.5C162.44 286.5 162.285 286.5 162.13 286.5C161.974 286.5 161.819 286.5 161.664 286.5C161.508 286.5 161.353 286.5 161.198 286.5C161.043 286.5 160.887 286.5 160.732 286.5C160.577 286.5 160.422 286.5 160.266 286.5C160.111 286.5 159.956 286.5 159.801 286.5C159.646 286.5 159.49 286.5 159.335 286.5C159.18 286.5 159.025 286.5 158.87 286.5C158.715 286.5 158.56 286.5 158.405 286.5C158.25 286.5 158.095 286.5 157.94 286.5C157.784 286.5 157.629 286.5 157.475 286.5C157.32 286.5 157.165 286.5 157.01 286.5C156.855 286.5 156.7 286.5 156.545 286.5C156.39 286.5 156.235 286.5 156.08 286.5C155.925 286.5 155.771 286.5 155.616 286.5C155.461 286.5 155.306 286.5 155.152 286.5C154.997 286.5 154.842 286.5 154.688 286.5C154.533 286.5 154.378 286.5 154.224 286.5C154.069 286.5 153.914 286.5 153.76 286.5C153.605 286.5 153.451 286.5 153.296 286.5C153.142 286.5 152.987 286.5 152.833 286.5C152.679 286.5 152.524 286.5 152.37 286.5C152.215 286.5 152.061 286.5 151.907 286.5C151.753 286.5 151.598 286.5 151.444 286.5C151.29 286.5 151.136 286.5 150.982 286.5C150.828 286.5 150.673 286.5 150.519 286.5C150.365 286.5 150.211 286.5 150.057 286.5C149.903 286.5 149.749 286.5 149.596 286.5C149.442 286.5 149.288 286.5 149.134 286.5C148.98 286.5 148.826 286.5 148.673 286.5C148.519 286.5 148.365 286.5 148.212 286.5C148.058 286.5 147.904 286.5 147.751 286.5C147.597 286.5 147.444 286.5 147.29 286.5C147.137 286.5 146.984 286.5 146.83 286.5C146.677 286.5 146.523 286.5 146.37 286.5C146.217 286.5 146.064 286.5 145.911 286.5C145.757 286.5 145.604 286.5 145.451 286.5C145.298 286.5 145.145 286.5 144.992 286.5C144.839 286.5 144.686 286.5 144.534 286.5C144.381 286.5 144.228 286.5 144.075 286.5C143.922 286.5 143.77 286.5 143.617 286.5C143.464 286.5 143.312 286.5 143.159 286.5C143.007 286.5 142.854 286.5 142.702 286.5C142.55 286.5 142.397 286.5 142.245 286.5C142.093 286.5 141.94 286.5 141.788 286.5C141.636 286.5 141.484 286.5 141.332 286.5C141.18 286.5 141.028 286.5 140.876 286.5C140.724 286.5 140.572 286.5 140.42 286.5C140.268 286.5 140.117 286.5 139.965 286.5C139.813 286.5 139.662 286.5 139.51 286.5C139.359 286.5 139.207 286.5 139.056 286.5C138.904 286.5 138.753 286.5 138.602 286.5C138.45 286.5 138.299 286.5 138.148 286.5C137.997 286.5 137.846 286.5 137.695 286.5C137.544 286.5 137.393 286.5 137.242 286.5C137.091 286.5 136.94 286.5 136.79 286.5C136.639 286.5 136.488 286.5 136.338 286.5C136.187 286.5 136.037 286.5 135.886 286.5C135.736 286.5 135.585 286.5 135.435 286.5C135.285 286.5 135.135 286.5 134.985 286.5C134.834 286.5 134.684 286.5 134.534 286.5C134.384 286.5 134.234 286.5 134.085 286.5C133.935 286.5 133.785 286.5 133.635 286.5C133.486 286.5 133.336 286.5 133.187 286.5C133.037 286.5 132.888 286.5 132.738 286.5C132.589 286.5 132.44 286.5 132.291 286.5C132.141 286.5 131.992 286.5 131.843 286.5C131.694 286.5 131.545 286.5 131.397 286.5C131.248 286.5 131.099 286.5 130.95 286.5C130.802 286.5 130.653 286.5 130.505 286.5C130.356 286.5 130.208 286.5 130.059 286.5C129.911 286.5 129.763 286.5 129.615 286.5C129.467 286.5 129.319 286.5 129.171 286.5C129.023 286.5 128.875 286.5 128.727 286.5C128.579 286.5 128.432 286.5 128.284 286.5C128.136 286.5 127.989 286.5 127.841 286.5C127.694 286.5 127.547 286.5 127.399 286.5C127.252 286.5 127.105 286.5 126.958 286.5C126.811 286.5 126.664 286.5 126.517 286.5C126.37 286.5 126.224 286.5 126.077 286.5C125.93 286.5 125.784 286.5 125.638 286.5C125.491 286.5 125.345 286.5 125.198 286.5C125.052 286.5 124.906 286.5 124.76 286.5C124.614 286.5 124.468 286.5 124.322 286.5C124.176 286.5 124.031 286.5 123.885 286.5C123.739 286.5 123.594 286.5 123.448 286.5C123.303 286.5 123.158 286.5 123.013 286.5C122.867 286.5 122.722 286.5 122.577 286.5C122.432 286.5 122.287 286.5 122.143 286.5C121.998 286.5 121.853 286.5 121.709 286.5C121.564 286.5 121.42 286.5 121.275 286.5C121.131 286.5 120.987 286.5 120.843 286.5C120.698 286.5 120.554 286.5 120.41 286.5C120.267 286.5 120.123 286.5 119.979 286.5C119.835 286.5 119.692 286.5 119.548 286.5C119.405 286.5 119.262 286.5 119.118 286.5C118.975 286.5 118.832 286.5 118.689 286.5C118.546 286.5 118.403 286.5 118.261 286.5C118.118 286.5 117.975 286.5 117.833 286.5C117.69 286.5 117.548 286.5 117.406 286.5C117.263 286.5 117.121 286.5 116.979 286.5C116.837 286.5 116.695 286.5 116.553 286.5C116.412 286.5 116.27 286.5 116.128 286.5C115.987 286.5 115.845 286.5 115.704 286.5C115.563 286.5 115.422 286.5 115.281 286.5C115.14 286.5 114.999 286.5 114.858 286.5C114.717 286.5 114.576 286.5 114.436 286.5C114.295 286.5 114.155 286.5 114.015 286.5C113.874 286.5 113.734 286.5 113.594 286.5C113.454 286.5 113.314 286.5 113.175 286.5C113.035 286.5 112.895 286.5 112.756 286.5C112.616 286.5 112.477 286.5 112.338 286.5C112.198 286.5 112.059 286.5 111.92 286.5C111.781 286.5 111.643 286.5 111.504 286.5C111.365 286.5 111.227 286.5 111.088 286.5C110.95 286.5 110.812 286.5 110.673 286.5C110.535 286.5 110.397 286.5 110.259 286.5C110.121 286.5 109.984 286.5 109.846 286.5C109.709 286.5 109.571 286.5 109.434 286.5C109.297 286.5 109.159 286.5 109.022 286.5C108.885 286.5 108.748 286.5 108.612 286.5C108.475 286.5 108.338 286.5 108.202 286.5C108.065 286.5 107.929 286.5 107.793 286.5C107.657 286.5 107.521 286.5 107.385 286.5C107.249 286.5 107.113 286.5 106.978 286.5C106.842 286.5 106.707 286.5 106.571 286.5C106.436 286.5 106.301 286.5 106.166 286.5C106.031 286.5 105.896 286.5 105.762 286.5C105.627 286.5 105.492 286.5 105.358 286.5C105.224 286.5 105.089 286.5 104.955 286.5C104.821 286.5 104.687 286.5 104.554 286.5C104.42 286.5 104.286 286.5 104.153 286.5C104.019 286.5 103.886 286.5 103.753 286.5C103.62 286.5 103.487 286.5 103.354 286.5C103.221 286.5 103.088 286.5 102.956 286.5C102.823 286.5 102.691 286.5 102.559 286.5C102.427 286.5 102.295 286.5 102.163 286.5C102.031 286.5 101.899 286.5 101.767 286.5C101.636 286.5 101.505 286.5 101.373 286.5C101.242 286.5 101.111 286.5 100.98 286.5C100.849 286.5 100.718 286.5 100.588 286.5C100.457 286.5 100.327 286.5 100.197 286.5C100.066 286.5 99.9364 286.5 99.8064 286.5C99.6765 286.5 99.5468 286.5 99.4172 286.5C99.2876 286.5 99.1582 286.5 99.029 286.5C98.8998 286.5 98.7707 286.5 98.6418 286.5C98.5129 286.5 98.3842 286.5 98.2556 286.5C98.1271 286.5 97.9987 286.5 97.8705 286.5C97.7423 286.5 97.6142 286.5 97.4864 286.5C97.3585 286.5 97.2308 286.5 97.1033 286.5C96.9758 286.5 96.8485 286.5 96.7213 286.5C96.5941 286.5 96.4671 286.5 96.3403 286.5C96.2135 286.5 96.0869 286.5 95.9604 286.5C95.834 286.5 95.7077 286.5 95.5816 286.5C95.4555 286.5 95.3296 286.5 95.2039 286.5C95.0781 286.5 94.9526 286.5 94.8272 286.5C94.7018 286.5 94.5766 286.5 94.4516 286.5C94.3266 286.5 94.2018 286.5 94.0771 286.5C93.9525 286.5 93.828 286.5 93.7037 286.5C93.5795 286.5 93.4554 286.5 93.3315 286.5C93.2076 286.5 93.0838 286.5 92.9603 286.5C92.8368 286.5 92.7134 286.5 92.5903 286.5C92.4671 286.5 92.3441 286.5 92.2214 286.5C92.0986 286.5 91.976 286.5 91.8536 286.5C91.7312 286.5 91.609 286.5 91.487 286.5C91.3649 286.5 91.2431 286.5 91.1215 286.5C90.9998 286.5 90.8784 286.5 90.7571 286.5C90.6359 286.5 90.5148 286.5 90.394 286.5C90.2731 286.5 90.1525 286.5 90.032 286.5C89.9115 286.5 89.7912 286.5 89.6712 286.5C89.5511 286.5 89.4312 286.5 89.3115 286.5C89.1918 286.5 89.0723 286.5 88.9531 286.5C88.8338 286.5 88.7147 286.5 88.5958 286.5C88.4769 286.5 88.3582 286.5 88.2397 286.5C88.1213 286.5 88.003 286.5 87.8849 286.5C87.7668 286.5 87.6489 286.5 87.5312 286.5C87.4136 286.5 87.2961 286.5 87.1788 286.5C87.0616 286.5 86.9445 286.5 86.8276 286.5C86.7108 286.5 86.5941 286.5 86.4777 286.5C86.3612 286.5 86.245 286.5 86.129 286.5C86.0129 286.5 85.8971 286.5 85.7815 286.5C85.6659 286.5 85.5505 286.5 85.4353 286.5C85.3201 286.5 85.2051 286.5 85.0903 286.5C84.9755 286.5 84.861 286.5 84.7466 286.5C84.6323 286.5 84.5181 286.5 84.4042 286.5C84.2903 286.5 84.1766 286.5 84.0631 286.5C83.9496 286.5 83.8363 286.5 83.7232 286.5C83.6102 286.5 83.4973 286.5 83.3847 286.5C83.272 286.5 83.1596 286.5 83.0474 286.5C82.9352 286.5 82.8232 286.5 82.7115 286.5C82.5997 286.5 82.4881 286.5 82.3768 286.5C82.2655 286.5 82.1544 286.5 82.0435 286.5C81.9326 286.5 81.8219 286.5 81.7115 286.5C81.6011 286.5 81.4908 286.5 81.3808 286.5C81.2708 286.5 81.1611 286.5 81.0515 286.5C80.942 286.5 80.8326 286.5 80.7235 286.5C80.6144 286.5 80.5056 286.5 80.3969 286.5C80.2883 286.5 80.1798 286.5 80.0716 286.5C79.9634 286.5 79.8555 286.5 79.7477 286.5C79.64 286.5 79.5325 286.5 79.4252 286.5C79.3179 286.5 79.2109 286.5 79.104 286.5C78.9972 286.5 78.8906 286.5 78.7843 286.5C78.6779 286.5 78.5718 286.5 78.4659 286.5C78.36 286.5 78.2544 286.5 78.1489 286.5C78.0435 286.5 77.9383 286.5 77.8334 286.5C77.7284 286.5 77.6237 286.5 77.5192 286.5C77.4147 286.5 77.3105 286.5 77.2064 286.5C77.1024 286.5 76.9987 286.5 76.8951 286.5C76.7916 286.5 76.6883 286.5 76.5852 286.5C76.4822 286.5 76.3794 286.5 76.2768 286.5C76.1742 286.5 76.0719 286.5 75.9698 286.5C75.8677 286.5 75.7658 286.5 75.6642 286.5C75.5626 286.5 75.4612 286.5 75.3601 286.5C75.259 286.5 75.1581 286.5 75.0575 286.5C74.9568 286.5 74.8565 286.5 74.7563 286.5C74.6562 286.5 74.5563 286.5 74.4566 286.5C74.357 286.5 74.2576 286.5 74.1584 286.5C74.0593 286.5 73.9604 286.5 73.8617 286.5C73.763 286.5 73.6646 286.5 73.5665 286.5C73.4683 286.5 73.3704 286.5 73.2728 286.5C73.1751 286.5 73.0777 286.5 72.9806 286.5C72.8834 286.5 72.7865 286.5 72.6899 286.5C72.5932 286.5 72.4968 286.5 72.4007 286.5C72.3046 286.5 72.2087 286.5 72.1131 286.5C72.0174 286.5 71.9221 286.5 71.827 286.5C71.7319 286.5 71.637 286.5 71.5424 286.5C71.4478 286.5 71.3535 286.5 71.2594 286.5C71.1653 286.5 71.0715 286.5 70.9779 286.5C70.8844 286.5 70.7911 286.5 70.6981 286.5C70.605 286.5 70.5122 286.5 70.4197 286.5C70.3272 286.5 70.235 286.5 70.143 286.5C70.051 286.5 69.9593 286.5 69.8678 286.5C69.7764 286.5 69.6852 286.5 69.5942 286.5C69.5033 286.5 69.4127 286.5 69.3223 286.5C69.2319 286.5 69.1417 286.5 69.0519 286.5C68.962 286.5 68.8724 286.5 68.7831 286.5C68.6938 286.5 68.6047 286.5 68.516 286.5C68.4272 286.5 68.3387 286.5 68.2504 286.5C68.1622 286.5 68.0742 286.5 67.9865 286.5C67.8988 286.5 67.8114 286.5 67.7243 286.5C67.6371 286.5 67.5502 286.5 67.4636 286.5C67.377 286.5 67.2907 286.5 67.2046 286.5C67.1186 286.5 67.0328 286.5 66.9473 286.5C66.8618 286.5 66.7766 286.5 66.6916 286.5C66.6067 286.5 66.522 286.5 66.4376 286.5C66.3533 286.5 66.2692 286.5 66.1853 286.5C66.1015 286.5 66.0179 286.5 65.9347 286.5C65.8514 286.5 65.7684 286.5 65.6857 286.5C65.603 286.5 65.5206 286.5 65.4385 286.5C65.3563 286.5 65.2745 286.5 65.1929 286.5C65.1113 286.5 65.03 286.5 64.949 286.5C64.868 286.5 64.7873 286.5 64.7069 286.5C64.6265 286.5 64.5463 286.5 64.4665 286.5C64.3866 286.5 64.3071 286.5 64.2278 286.5C64.1485 286.5 64.0695 286.5 63.9908 286.5C63.9121 286.5 63.8337 286.5 63.7556 286.5C63.6775 286.5 63.5997 286.5 63.5221 286.5C63.4446 286.5 63.3673 286.5 63.2904 286.5C63.2134 286.5 63.1368 286.5 63.0604 286.5C62.9841 286.5 62.908 286.5 62.8322 286.5C62.7565 286.5 62.681 286.5 62.6058 286.5C62.5306 286.5 62.4558 286.5 62.3812 286.5C62.3066 286.5 62.2323 286.5 62.1583 286.5C62.0843 286.5 62.0106 286.5 61.9372 286.5C61.8639 286.5 61.7908 286.5 61.718 286.5C61.6452 286.5 61.5727 286.5 61.5005 286.5C61.4283 286.5 61.3564 286.5 61.2849 286.5C61.2133 286.5 61.142 286.5 61.071 286.5C61.0001 286.5 60.9294 286.5 60.859 286.5C60.7887 286.5 60.7186 286.5 60.6489 286.5C60.5791 286.5 60.5097 286.5 60.4405 286.5C60.3714 286.5 60.3025 286.5 60.234 286.5C60.1655 286.5 60.0973 286.5 60.0294 286.5C59.9615 286.5 59.8939 286.5 59.8266 286.5C59.7593 286.5 59.6924 286.5 59.6257 286.5C59.559 286.5 59.4927 286.5 59.4266 286.5C59.3606 286.5 59.2949 286.5 59.2295 286.5C59.1641 286.5 59.099 286.5 59.0342 286.5C58.9694 286.5 58.905 286.5 58.8408 286.5C58.7767 286.5 58.7128 286.5 58.6493 286.5C58.5858 286.5 58.5226 286.5 58.4597 286.5C58.3968 286.5 58.3343 286.5 58.272 286.5C58.2098 286.5 58.1479 286.5 58.0863 286.5C58.0247 286.5 57.9634 286.5 57.9024 286.5C57.8415 286.5 57.7809 286.5 57.7205 286.5C57.6602 286.5 57.6002 286.5 57.5406 286.5C57.4809 286.5 57.4216 286.5 57.3625 286.5C57.3035 286.5 57.2448 286.5 57.1865 286.5C57.1281 286.5 57.0701 286.5 57.0124 286.5C56.9546 286.5 56.8973 286.5 56.8402 286.5C56.7831 286.5 56.7264 286.5 56.67 286.5C56.6136 286.5 56.5575 286.5 56.5018 286.5C56.4461 286.5 56.3907 286.5 56.3356 286.5C56.2805 286.5 56.2258 286.5 56.1713 286.5C56.1169 286.5 56.0628 286.5 56.0091 286.5C55.9554 286.5 55.9019 286.5 55.8489 286.5C55.7958 286.5 55.743 286.5 55.6906 286.5C55.6382 286.5 55.5862 286.5 55.5344 286.5C55.4827 286.5 55.4313 286.5 55.3802 286.5C55.3292 286.5 55.2785 286.5 55.2281 286.5C55.1777 286.5 55.1276 286.5 55.0779 286.5C55.0282 286.5 54.9789 286.5 54.9299 286.5C54.8808 286.5 54.8322 286.5 54.7838 286.5C54.7355 286.5 54.6875 286.5 54.6399 286.5C54.5922 286.5 54.5449 286.5 54.4979 286.5C54.451 286.5 54.4044 286.5 54.3581 286.5C54.3118 286.5 54.2659 286.5 54.2203 286.5C54.1747 286.5 54.1295 286.5 54.0846 286.5C54.0397 286.5 53.9952 286.5 53.951 286.5C53.9068 286.5 53.863 286.5 53.8195 286.5C53.776 286.5 53.7329 286.5 53.6901 286.5C53.6473 286.5 53.6049 286.5 53.5628 286.5C53.5207 286.5 53.479 286.5 53.4376 286.5C53.3962 286.5 53.3552 286.5 53.3146 286.5C53.2739 286.5 53.2336 286.5 53.1936 286.5C53.1537 286.5 53.1141 286.5 53.0748 286.5C53.0356 286.5 52.9967 286.5 52.9582 286.5C52.9196 286.5 52.8815 286.5 52.8437 286.5C52.8058 286.5 52.7684 286.5 52.7313 286.5C52.6942 286.5 52.6575 286.5 52.6211 286.5C52.5847 286.5 52.5487 286.5 52.5131 286.5C52.4774 286.5 52.4421 286.5 52.4072 286.5C52.3723 286.5 52.3377 286.5 52.3035 286.5C52.2693 286.5 52.2355 286.5 52.202 286.5C52.1686 286.5 52.1355 286.5 52.1027 286.5C52.07 286.5 52.0376 286.5 52.0056 286.5C51.9736 286.5 51.942 286.5 51.9108 286.5C51.8795 286.5 51.8486 286.5 51.8181 286.5C51.7876 286.5 51.7574 286.5 51.7276 286.5C51.6978 286.5 51.6684 286.5 51.6394 286.5C51.6103 286.5 51.5817 286.5 51.5534 286.5C51.5251 286.5 51.4972 286.5 51.4696 286.5C51.4421 286.5 51.4149 286.5 51.3881 286.5C51.3613 286.5 51.3349 286.5 51.3089 286.5C51.2828 286.5 51.2571 286.5 51.2319 286.5C51.2066 286.5 51.1817 286.5 51.1571 286.5C51.1326 286.5 51.1084 286.5 51.0847 286.5C51.0609 286.5 51.0375 286.5 51.0145 286.5C50.9915 286.5 50.9688 286.5 50.9466 286.5C50.9243 286.5 50.9025 286.5 50.881 286.5C50.8595 286.5 50.8384 286.5 50.8177 286.5C50.7969 286.5 50.7766 286.5 50.7567 286.5C50.7367 286.5 50.7171 286.5 50.698 286.5C50.6788 286.5 50.66 286.5 50.6416 286.5C50.6232 286.5 50.6052 286.5 50.5875 286.5C50.5699 286.5 50.5527 286.5 50.5358 286.5C50.519 286.5 50.5025 286.5 50.4865 286.5C50.4704 286.5 50.4547 286.5 50.4394 286.5C50.4241 286.5 50.4092 286.5 50.3947 286.5C50.3802 286.5 50.3661 286.5 50.3524 286.5C50.3387 286.5 50.3254 286.5 50.3125 286.5C50.2995 286.5 50.287 286.5 50.2749 286.5C50.2627 286.5 50.251 286.5 50.2397 286.5C50.2283 286.5 50.2174 286.5 50.2068 286.5C50.1963 286.5 50.1861 286.5 50.1764 286.5C50.1666 286.5 50.1573 286.5 50.1483 286.5C50.1394 286.5 50.1309 286.5 50.1227 286.5C50.1146 286.5 50.1068 286.5 50.0995 286.5C50.0921 286.5 50.0852 286.5 50.0787 286.5C50.0721 286.5 50.066 286.5 50.0603 286.5C50.0546 286.5 50.0492 286.5 50.0443 286.5C50.0394 286.5 50.0349 286.5 50.0308 286.5C50.0267 286.5 50.023 286.5 50.0197 286.5C50.0165 286.5 50.0136 286.5 50.0111 286.5C50.0086 286.5 50.0066 286.5 50.0049 286.5C50.0033 286.5 50.0021 286.5 50.0012 286.5C50.0004 286.5 50 286.5 50 290ZM50 130.5C50 134 50.0004 134 50.0012 134C50.0021 134 50.0033 134 50.0049 134C50.0066 134 50.0086 134 50.0111 134C50.0136 134 50.0165 134 50.0197 134C50.023 134 50.0267 134 50.0308 134C50.0349 134 50.0394 134 50.0443 134C50.0492 134 50.0546 134 50.0603 134C50.066 134 50.0721 134 50.0787 134C50.0852 134 50.0921 134 50.0995 134C50.1068 134 50.1146 134 50.1227 134C50.1309 134 50.1394 134 50.1483 134C50.1573 134 50.1666 134 50.1764 134C50.1861 134 50.1963 134 50.2068 134C50.2174 134 50.2283 134 50.2397 134C50.251 134 50.2627 134 50.2749 134C50.287 134 50.2995 134 50.3125 134C50.3254 134 50.3387 134 50.3524 134C50.3661 134 50.3802 134 50.3947 134C50.4092 134 50.4241 134 50.4394 134C50.4547 134 50.4704 134 50.4865 134C50.5025 134 50.519 134 50.5358 134C50.5527 134 50.5699 134 50.5875 134C50.6052 134 50.6232 134 50.6416 134C50.66 134 50.6788 134 50.698 134C50.7171 134 50.7367 134 50.7567 134C50.7766 134 50.7969 134 50.8177 134C50.8384 134 50.8595 134 50.881 134C50.9025 134 50.9243 134 50.9466 134C50.9688 134 50.9915 134 51.0145 134C51.0375 134 51.0609 134 51.0847 134C51.1084 134 51.1326 134 51.1571 134C51.1817 134 51.2066 134 51.2319 134C51.2571 134 51.2828 134 51.3089 134C51.3349 134 51.3613 134 51.3881 134C51.4149 134 51.4421 134 51.4696 134C51.4972 134 51.5251 134 51.5534 134C51.5817 134 51.6103 134 51.6394 134C51.6684 134 51.6978 134 51.7276 134C51.7574 134 51.7876 134 51.8181 134C51.8486 134 51.8795 134 51.9108 134C51.942 134 51.9736 134 52.0056 134C52.0376 134 52.07 134 52.1027 134C52.1355 134 52.1686 134 52.202 134C52.2355 134 52.2693 134 52.3035 134C52.3377 134 52.3723 134 52.4072 134C52.4421 134 52.4774 134 52.5131 134C52.5487 134 52.5847 134 52.6211 134C52.6575 134 52.6942 134 52.7313 134C52.7684 134 52.8058 134 52.8437 134C52.8815 134 52.9196 134 52.9582 134C52.9967 134 53.0356 134 53.0748 134C53.1141 134 53.1537 134 53.1936 134C53.2336 134 53.2739 134 53.3146 134C53.3552 134 53.3962 134 53.4376 134C53.479 134 53.5207 134 53.5628 134C53.6049 134 53.6473 134 53.6901 134C53.7329 134 53.776 134 53.8195 134C53.863 134 53.9068 134 53.951 134C53.9952 134 54.0397 134 54.0846 134C54.1295 134 54.1747 134 54.2203 134C54.2659 134 54.3118 134 54.3581 134C54.4044 134 54.451 134 54.4979 134C54.5449 134 54.5922 134 54.6399 134C54.6875 134 54.7355 134 54.7838 134C54.8322 134 54.8808 134 54.9299 134C54.9789 134 55.0282 134 55.0779 134C55.1276 134 55.1777 134 55.2281 134C55.2785 134 55.3292 134 55.3802 134C55.4313 134 55.4827 134 55.5344 134C55.5862 134 55.6382 134 55.6906 134C55.743 134 55.7958 134 55.8489 134C55.9019 134 55.9554 134 56.0091 134C56.0628 134 56.1169 134 56.1713 134C56.2258 134 56.2805 134 56.3356 134C56.3907 134 56.4461 134 56.5018 134C56.5575 134 56.6136 134 56.67 134C56.7264 134 56.7831 134 56.8402 134C56.8973 134 56.9546 134 57.0124 134C57.0701 134 57.1281 134 57.1865 134C57.2448 134 57.3035 134 57.3625 134C57.4216 134 57.4809 134 57.5406 134C57.6002 134 57.6602 134 57.7205 134C57.7809 134 57.8415 134 57.9024 134C57.9634 134 58.0247 134 58.0863 134C58.1479 134 58.2098 134 58.272 134C58.3343 134 58.3968 134 58.4597 134C58.5226 134 58.5858 134 58.6493 134C58.7128 134 58.7767 134 58.8408 134C58.905 134 58.9694 134 59.0342 134C59.099 134 59.1641 134 59.2295 134C59.2949 134 59.3606 134 59.4266 134C59.4927 134 59.559 134 59.6257 134C59.6924 134 59.7593 134 59.8266 134C59.8939 134 59.9615 134 60.0294 134C60.0973 134 60.1655 134 60.234 134C60.3025 134 60.3714 134 60.4405 134C60.5097 134 60.5791 134 60.6489 134C60.7186 134 60.7887 134 60.859 134C60.9294 134 61.0001 134 61.071 134C61.142 134 61.2133 134 61.2849 134C61.3564 134 61.4283 134 61.5005 134C61.5727 134 61.6452 134 61.718 134C61.7908 134 61.8639 134 61.9372 134C62.0106 134 62.0843 134 62.1583 134C62.2323 134 62.3066 134 62.3812 134C62.4558 134 62.5306 134 62.6058 134C62.681 134 62.7565 134 62.8322 134C62.908 134 62.9841 134 63.0604 134C63.1368 134 63.2134 134 63.2904 134C63.3673 134 63.4446 134 63.5221 134C63.5997 134 63.6775 134 63.7556 134C63.8337 134 63.9121 134 63.9908 134C64.0695 134 64.1485 134 64.2278 134C64.3071 134 64.3866 134 64.4665 134C64.5463 134 64.6265 134 64.7069 134C64.7873 134 64.868 134 64.949 134C65.03 134 65.1113 134 65.1929 134C65.2745 134 65.3563 134 65.4385 134C65.5206 134 65.603 134 65.6857 134C65.7684 134 65.8514 134 65.9347 134C66.0179 134 66.1015 134 66.1853 134C66.2692 134 66.3533 134 66.4376 134C66.522 134 66.6067 134 66.6916 134C66.7766 134 66.8618 134 66.9473 134C67.0328 134 67.1186 134 67.2046 134C67.2907 134 67.377 134 67.4636 134C67.5502 134 67.6371 134 67.7243 134C67.8114 134 67.8988 134 67.9865 134C68.0742 134 68.1622 134 68.2504 134C68.3387 134 68.4272 134 68.516 134C68.6047 134 68.6938 134 68.7831 134C68.8724 134 68.962 134 69.0519 134C69.1417 134 69.2319 134 69.3223 134C69.4127 134 69.5033 134 69.5942 134C69.6852 134 69.7764 134 69.8678 134C69.9593 134 70.051 134 70.143 134C70.235 134 70.3272 134 70.4197 134C70.5122 134 70.605 134 70.6981 134C70.7911 134 70.8844 134 70.9779 134C71.0715 134 71.1653 134 71.2594 134C71.3535 134 71.4478 134 71.5424 134C71.637 134 71.7319 134 71.827 134C71.9221 134 72.0174 134 72.1131 134C72.2087 134 72.3046 134 72.4007 134C72.4968 134 72.5932 134 72.6899 134C72.7865 134 72.8834 134 72.9806 134C73.0777 134 73.1751 134 73.2728 134C73.3704 134 73.4683 134 73.5665 134C73.6646 134 73.763 134 73.8617 134C73.9604 134 74.0593 134 74.1584 134C74.2576 134 74.357 134 74.4566 134C74.5563 134 74.6562 134 74.7563 134C74.8565 134 74.9568 134 75.0575 134C75.1581 134 75.259 134 75.3601 134C75.4612 134 75.5626 134 75.6642 134C75.7658 134 75.8677 134 75.9698 134C76.0719 134 76.1742 134 76.2768 134C76.3794 134 76.4822 134 76.5852 134C76.6883 134 76.7916 134 76.8951 134C76.9987 134 77.1024 134 77.2064 134C77.3105 134 77.4147 134 77.5192 134C77.6237 134 77.7284 134 77.8334 134C77.9383 134 78.0435 134 78.1489 134C78.2544 134 78.36 134 78.4659 134C78.5718 134 78.6779 134 78.7843 134C78.8906 134 78.9972 134 79.104 134C79.2109 134 79.3179 134 79.4252 134C79.5325 134 79.64 134 79.7477 134C79.8555 134 79.9634 134 80.0716 134C80.1798 134 80.2883 134 80.3969 134C80.5056 134 80.6144 134 80.7235 134C80.8326 134 80.942 134 81.0515 134C81.1611 134 81.2708 134 81.3808 134C81.4908 134 81.6011 134 81.7115 134C81.8219 134 81.9326 134 82.0435 134C82.1544 134 82.2655 134 82.3768 134C82.4881 134 82.5997 134 82.7115 134C82.8232 134 82.9352 134 83.0474 134C83.1596 134 83.272 134 83.3847 134C83.4973 134 83.6102 134 83.7232 134C83.8363 134 83.9496 134 84.0631 134C84.1766 134 84.2903 134 84.4042 134C84.5181 134 84.6323 134 84.7466 134C84.861 134 84.9755 134 85.0903 134C85.2051 134 85.3201 134 85.4353 134C85.5505 134 85.6659 134 85.7815 134C85.8971 134 86.0129 134 86.129 134C86.245 134 86.3612 134 86.4777 134C86.5941 134 86.7108 134 86.8276 134C86.9445 134 87.0616 134 87.1788 134C87.2961 134 87.4136 134 87.5312 134C87.6489 134 87.7668 134 87.8849 134C88.003 134 88.1213 134 88.2397 134C88.3582 134 88.4769 134 88.5958 134C88.7147 134 88.8338 134 88.9531 134C89.0723 134 89.1918 134 89.3115 134C89.4312 134 89.5511 134 89.6712 134C89.7912 134 89.9115 134 90.032 134C90.1525 134 90.2731 134 90.394 134C90.5148 134 90.6359 134 90.7571 134C90.8784 134 90.9998 134 91.1215 134C91.2431 134 91.3649 134 91.487 134C91.609 134 91.7312 134 91.8536 134C91.976 134 92.0986 134 92.2214 134C92.3441 134 92.4671 134 92.5903 134C92.7134 134 92.8368 134 92.9603 134C93.0838 134 93.2076 134 93.3315 134C93.4554 134 93.5795 134 93.7037 134C93.828 134 93.9525 134 94.0771 134C94.2018 134 94.3266 134 94.4516 134C94.5766 134 94.7018 134 94.8272 134C94.9526 134 95.0781 134 95.2039 134C95.3296 134 95.4555 134 95.5816 134C95.7077 134 95.834 134 95.9604 134C96.0869 134 96.2135 134 96.3403 134C96.4671 134 96.5941 134 96.7213 134C96.8485 134 96.9758 134 97.1033 134C97.2308 134 97.3585 134 97.4864 134C97.6142 134 97.7423 134 97.8705 134C97.9987 134 98.1271 134 98.2556 134C98.3842 134 98.5129 134 98.6418 134C98.7707 134 98.8998 134 99.029 134C99.1582 134 99.2876 134 99.4172 134C99.5468 134 99.6765 134 99.8064 134C99.9364 134 100.066 134 100.197 134C100.327 134 100.457 134 100.588 134C100.718 134 100.849 134 100.98 134C101.111 134 101.242 134 101.373 134C101.505 134 101.636 134 101.767 134C101.899 134 102.031 134 102.163 134C102.295 134 102.427 134 102.559 134C102.691 134 102.823 134 102.956 134C103.088 134 103.221 134 103.354 134C103.487 134 103.62 134 103.753 134C103.886 134 104.019 134 104.153 134C104.286 134 104.42 134 104.554 134C104.687 134 104.821 134 104.955 134C105.089 134 105.224 134 105.358 134C105.492 134 105.627 134 105.762 134C105.896 134 106.031 134 106.166 134C106.301 134 106.436 134 106.571 134C106.707 134 106.842 134 106.978 134C107.113 134 107.249 134 107.385 134C107.521 134 107.657 134 107.793 134C107.929 134 108.065 134 108.202 134C108.338 134 108.475 134 108.612 134C108.748 134 108.885 134 109.022 134C109.159 134 109.297 134 109.434 134C109.571 134 109.709 134 109.846 134C109.984 134 110.121 134 110.259 134C110.397 134 110.535 134 110.673 134C110.812 134 110.95 134 111.088 134C111.227 134 111.365 134 111.504 134C111.643 134 111.781 134 111.92 134C112.059 134 112.198 134 112.338 134C112.477 134 112.616 134 112.756 134C112.895 134 113.035 134 113.175 134C113.314 134 113.454 134 113.594 134C113.734 134 113.874 134 114.015 134C114.155 134 114.295 134 114.436 134C114.576 134 114.717 134 114.858 134C114.999 134 115.14 134 115.281 134C115.422 134 115.563 134 115.704 134C115.845 134 115.987 134 116.128 134C116.27 134 116.412 134 116.553 134C116.695 134 116.837 134 116.979 134C117.121 134 117.263 134 117.406 134C117.548 134 117.69 134 117.833 134C117.975 134 118.118 134 118.261 134C118.403 134 118.546 134 118.689 134C118.832 134 118.975 134 119.118 134C119.262 134 119.405 134 119.548 134C119.692 134 119.835 134 119.979 134C120.123 134 120.267 134 120.41 134C120.554 134 120.698 134 120.843 134C120.987 134 121.131 134 121.275 134C121.42 134 121.564 134 121.709 134C121.853 134 121.998 134 122.143 134C122.287 134 122.432 134 122.577 134C122.722 134 122.867 134 123.013 134C123.158 134 123.303 134 123.448 134C123.594 134 123.739 134 123.885 134C124.031 134 124.176 134 124.322 134C124.468 134 124.614 134 124.76 134C124.906 134 125.052 134 125.198 134C125.345 134 125.491 134 125.638 134C125.784 134 125.93 134 126.077 134C126.224 134 126.37 134 126.517 134C126.664 134 126.811 134 126.958 134C127.105 134 127.252 134 127.399 134C127.547 134 127.694 134 127.841 134C127.989 134 128.136 134 128.284 134C128.432 134 128.579 134 128.727 134C128.875 134 129.023 134 129.171 134C129.319 134 129.467 134 129.615 134C129.763 134 129.911 134 130.059 134C130.208 134 130.356 134 130.505 134C130.653 134 130.802 134 130.95 134C131.099 134 131.248 134 131.397 134C131.545 134 131.694 134 131.843 134C131.992 134 132.141 134 132.291 134C132.44 134 132.589 134 132.738 134C132.888 134 133.037 134 133.187 134C133.336 134 133.486 134 133.635 134C133.785 134 133.935 134 134.085 134C134.234 134 134.384 134 134.534 134C134.684 134 134.834 134 134.985 134C135.135 134 135.285 134 135.435 134C135.585 134 135.736 134 135.886 134C136.037 134 136.187 134 136.338 134C136.488 134 136.639 134 136.79 134C136.94 134 137.091 134 137.242 134C137.393 134 137.544 134 137.695 134C137.846 134 137.997 134 138.148 134C138.299 134 138.45 134 138.602 134C138.753 134 138.904 134 139.056 134C139.207 134 139.359 134 139.51 134C139.662 134 139.813 134 139.965 134C140.117 134 140.268 134 140.42 134C140.572 134 140.724 134 140.876 134C141.028 134 141.18 134 141.332 134C141.484 134 141.636 134 141.788 134C141.94 134 142.093 134 142.245 134C142.397 134 142.55 134 142.702 134C142.854 134 143.007 134 143.159 134C143.312 134 143.464 134 143.617 134C143.77 134 143.922 134 144.075 134C144.228 134 144.381 134 144.534 134C144.686 134 144.839 134 144.992 134C145.145 134 145.298 134 145.451 134C145.604 134 145.757 134 145.911 134C146.064 134 146.217 134 146.37 134C146.523 134 146.677 134 146.83 134C146.984 134 147.137 134 147.29 134C147.444 134 147.597 134 147.751 134C147.904 134 148.058 134 148.212 134C148.365 134 148.519 134 148.673 134C148.826 134 148.98 134 149.134 134C149.288 134 149.442 134 149.596 134C149.749 134 149.903 134 150.057 134C150.211 134 150.365 134 150.519 134C150.673 134 150.828 134 150.982 134C151.136 134 151.29 134 151.444 134C151.598 134 151.753 134 151.907 134C152.061 134 152.215 134 152.37 134C152.524 134 152.679 134 152.833 134C152.987 134 153.142 134 153.296 134C153.451 134 153.605 134 153.76 134C153.914 134 154.069 134 154.224 134C154.378 134 154.533 134 154.688 134C154.842 134 154.997 134 155.152 134C155.306 134 155.461 134 155.616 134C155.771 134 155.925 134 156.08 134C156.235 134 156.39 134 156.545 134C156.7 134 156.855 134 157.01 134C157.165 134 157.32 134 157.475 134C157.629 134 157.784 134 157.94 134C158.095 134 158.25 134 158.405 134C158.56 134 158.715 134 158.87 134C159.025 134 159.18 134 159.335 134C159.49 134 159.646 134 159.801 134C159.956 134 160.111 134 160.266 134C160.422 134 160.577 134 160.732 134C160.887 134 161.043 134 161.198 134C161.353 134 161.508 134 161.664 134C161.819 134 161.974 134 162.13 134C162.285 134 162.44 134 162.596 134C162.751 134 162.906 134 163.062 134C163.217 134 163.372 134 163.528 134C163.683 134 163.839 134 163.994 134C164.149 134 164.305 134 164.46 134C164.616 134 164.771 134 164.926 134C165.082 134 165.237 134 165.393 134C165.548 134 165.704 134 165.859 134C166.015 134 166.17 134 166.325 134C166.481 134 166.636 134 166.792 134C166.947 134 167.103 134 167.258 134C167.414 134 167.569 134 167.724 134C167.88 134 168.035 134 168.191 134C168.346 134 168.502 134 168.657 134C168.813 134 168.968 134 169.123 134C169.279 134 169.434 134 169.59 134C169.745 134 169.9 134 170.056 134C170.211 134 170.367 134 170.522 134C170.677 134 170.833 134 170.988 134C171.144 134 171.299 134 171.454 134C171.61 134 171.765 134 171.92 134C172.076 134 172.231 134 172.386 134C172.542 134 172.697 134 172.852 134C173.007 134 173.163 134 173.318 134C173.473 134 173.628 134 173.784 134C173.939 134 174.094 134 174.249 134C174.405 134 174.56 134 174.715 134C174.87 134 175.025 134 175.18 134C175.335 134 175.49 134 175.646 134C175.801 134 175.956 134 176.111 134C176.266 134 176.421 134 176.576 134C176.731 134 176.886 134 177.041 134C177.196 134 177.351 134 177.506 134C177.66 134 177.815 134 177.97 134C178.125 134 178.28 134 178.435 134C178.589 134 178.744 134 178.899 134C179.054 134 179.208 134 179.363 134C179.518 134 179.672 134 179.827 134C179.982 134 180.136 134 180.291 134C180.445 134 180.6 134 180.754 134C180.909 134 181.063 134 181.218 134C181.372 134 181.527 134 181.681 134C181.836 134 181.99 134 182.144 134C182.298 134 182.453 134 182.607 134C182.761 134 182.915 134 183.07 134C183.224 134 183.378 134 183.532 134C183.686 134 183.84 134 183.994 134C184.148 134 184.302 134 184.456 134C184.61 134 184.764 134 184.918 134C185.071 134 185.225 134 185.379 134C185.533 134 185.686 134 185.84 134C185.994 134 186.147 134 186.301 134C186.455 134 186.608 134 186.762 134C186.915 134 187.068 134 187.222 134C187.375 134 187.529 134 187.682 134C187.835 134 187.988 134 188.142 134C188.295 134 188.448 134 188.601 134C188.754 134 188.907 134 189.06 134C189.213 134 189.366 134 189.519 134C189.672 134 189.825 134 189.978 134C190.13 134 190.283 134 190.436 134C190.588 134 190.741 134 190.894 134C191.046 134 191.199 134 191.351 134C191.504 134 191.656 134 191.808 134C191.961 134 192.113 134 192.265 134C192.417 134 192.57 134 192.722 134C192.874 134 193.026 134 193.178 134C193.33 134 193.482 134 193.633 134C193.785 134 193.937 134 194.089 134C194.241 134 194.392 134 194.544 134C194.695 134 194.847 134 194.998 134C195.15 134 195.301 134 195.453 134C195.604 134 195.755 134 195.906 134C196.058 134 196.209 134 196.36 134C196.511 134 196.662 134 196.813 134C196.964 134 197.114 134 197.265 134C197.416 134 197.567 134 197.717 134C197.868 134 198.019 134 198.169 134C198.319 134 198.47 134 198.62 134C198.771 134 198.921 134 199.071 134C199.221 134 199.371 134 199.521 134C199.671 134 199.821 134 199.971 134C200.121 134 200.271 134 200.421 134C200.57 134 200.72 134 200.869 134C201.019 134 201.169 134 201.318 134C201.467 134 201.617 134 201.766 134C201.915 134 202.064 134 202.213 134C202.362 134 202.511 134 202.66 134C202.809 134 202.958 134 203.107 134C203.255 134 203.404 134 203.553 134C203.701 134 203.85 134 203.998 134C204.146 134 204.295 134 204.443 134C204.591 134 204.739 134 204.887 134C205.035 134 205.183 134 205.331 134C205.479 134 205.627 134 205.774 134C205.922 134 206.07 134 206.217 134C206.364 134 206.512 134 206.659 134C206.806 134 206.954 134 207.101 134C207.248 134 207.395 134 207.542 134C207.689 134 207.835 134 207.982 134C208.129 134 208.275 134 208.422 134C208.568 134 208.715 134 208.861 134C209.008 134 209.154 134 209.3 134C209.446 134 209.592 134 209.738 134C209.884 134 210.03 134 210.175 134C210.321 134 210.467 134 210.612 134C210.758 134 210.903 134 211.048 134C211.194 134 211.339 134 211.484 134C211.629 134 211.774 134 211.919 134C212.064 134 212.208 134 212.353 134C212.498 134 212.642 134 212.787 134C212.931 134 213.075 134 213.219 134C213.364 134 213.508 134 213.652 134C213.796 134 213.94 134 214.083 134C214.227 134 214.371 134 214.514 134C214.658 134 214.801 134 214.944 134C215.088 134 215.231 134 215.374 134C215.517 134 215.66 134 215.803 134C215.946 134 216.088 134 216.231 134C216.374 134 216.516 134 216.658 134C216.801 134 216.943 134 217.085 134C217.227 134 217.369 134 217.511 134C217.653 134 217.795 134 217.936 134C218.078 134 218.219 134 218.361 134C218.502 134 218.644 134 218.785 134C218.926 134 219.067 134 219.208 134C219.349 134 219.489 134 219.63 134C219.771 134 219.911 134 220.051 134C220.192 134 220.332 134 220.472 134C220.612 134 220.752 134 220.892 134C221.032 134 221.172 134 221.311 134C221.451 134 221.59 134 221.73 134C221.869 134 222.008 134 222.147 134C222.286 134 222.425 134 222.564 134C222.703 134 222.841 134 222.98 134C223.118 134 223.257 134 223.395 134C223.533 134 223.671 134 223.809 134C223.947 134 224.085 134 224.223 134C224.361 134 224.498 134 224.635 134C224.773 134 224.91 134 225.047 134C225.184 134 225.321 134 225.458 134C225.595 134 225.732 134 225.868 134C226.005 134 226.141 134 226.278 134C226.414 134 226.55 134 226.686 134C226.822 134 226.958 134 227.093 134C227.229 134 227.365 134 227.5 134V127C227.365 127 227.229 127 227.093 127C226.958 127 226.822 127 226.686 127C226.55 127 226.414 127 226.278 127C226.141 127 226.005 127 225.868 127C225.732 127 225.595 127 225.458 127C225.321 127 225.184 127 225.047 127C224.91 127 224.773 127 224.635 127C224.498 127 224.361 127 224.223 127C224.085 127 223.947 127 223.809 127C223.671 127 223.533 127 223.395 127C223.257 127 223.118 127 222.98 127C222.841 127 222.703 127 222.564 127C222.425 127 222.286 127 222.147 127C222.008 127 221.869 127 221.73 127C221.59 127 221.451 127 221.311 127C221.172 127 221.032 127 220.892 127C220.752 127 220.612 127 220.472 127C220.332 127 220.192 127 220.051 127C219.911 127 219.771 127 219.63 127C219.489 127 219.349 127 219.208 127C219.067 127 218.926 127 218.785 127C218.644 127 218.502 127 218.361 127C218.219 127 218.078 127 217.936 127C217.795 127 217.653 127 217.511 127C217.369 127 217.227 127 217.085 127C216.943 127 216.801 127 216.658 127C216.516 127 216.374 127 216.231 127C216.088 127 215.946 127 215.803 127C215.66 127 215.517 127 215.374 127C215.231 127 215.088 127 214.944 127C214.801 127 214.658 127 214.514 127C214.371 127 214.227 127 214.083 127C213.94 127 213.796 127 213.652 127C213.508 127 213.364 127 213.219 127C213.075 127 212.931 127 212.787 127C212.642 127 212.498 127 212.353 127C212.208 127 212.064 127 211.919 127C211.774 127 211.629 127 211.484 127C211.339 127 211.194 127 211.048 127C210.903 127 210.758 127 210.612 127C210.467 127 210.321 127 210.175 127C210.03 127 209.884 127 209.738 127C209.592 127 209.446 127 209.3 127C209.154 127 209.008 127 208.861 127C208.715 127 208.568 127 208.422 127C208.275 127 208.129 127 207.982 127C207.835 127 207.689 127 207.542 127C207.395 127 207.248 127 207.101 127C206.954 127 206.806 127 206.659 127C206.512 127 206.364 127 206.217 127C206.07 127 205.922 127 205.774 127C205.627 127 205.479 127 205.331 127C205.183 127 205.035 127 204.887 127C204.739 127 204.591 127 204.443 127C204.295 127 204.146 127 203.998 127C203.85 127 203.701 127 203.553 127C203.404 127 203.255 127 203.107 127C202.958 127 202.809 127 202.66 127C202.511 127 202.362 127 202.213 127C202.064 127 201.915 127 201.766 127C201.617 127 201.467 127 201.318 127C201.169 127 201.019 127 200.869 127C200.72 127 200.57 127 200.421 127C200.271 127 200.121 127 199.971 127C199.821 127 199.671 127 199.521 127C199.371 127 199.221 127 199.071 127C198.921 127 198.771 127 198.62 127C198.47 127 198.319 127 198.169 127C198.019 127 197.868 127 197.717 127C197.567 127 197.416 127 197.265 127C197.114 127 196.964 127 196.813 127C196.662 127 196.511 127 196.36 127C196.209 127 196.058 127 195.906 127C195.755 127 195.604 127 195.453 127C195.301 127 195.15 127 194.998 127C194.847 127 194.695 127 194.544 127C194.392 127 194.241 127 194.089 127C193.937 127 193.785 127 193.633 127C193.482 127 193.33 127 193.178 127C193.026 127 192.874 127 192.722 127C192.57 127 192.417 127 192.265 127C192.113 127 191.961 127 191.808 127C191.656 127 191.504 127 191.351 127C191.199 127 191.046 127 190.894 127C190.741 127 190.588 127 190.436 127C190.283 127 190.13 127 189.978 127C189.825 127 189.672 127 189.519 127C189.366 127 189.213 127 189.06 127C188.907 127 188.754 127 188.601 127C188.448 127 188.295 127 188.142 127C187.988 127 187.835 127 187.682 127C187.529 127 187.375 127 187.222 127C187.068 127 186.915 127 186.762 127C186.608 127 186.455 127 186.301 127C186.147 127 185.994 127 185.84 127C185.686 127 185.533 127 185.379 127C185.225 127 185.071 127 184.918 127C184.764 127 184.61 127 184.456 127C184.302 127 184.148 127 183.994 127C183.84 127 183.686 127 183.532 127C183.378 127 183.224 127 183.07 127C182.915 127 182.761 127 182.607 127C182.453 127 182.298 127 182.144 127C181.99 127 181.836 127 181.681 127C181.527 127 181.372 127 181.218 127C181.063 127 180.909 127 180.754 127C180.6 127 180.445 127 180.291 127C180.136 127 179.982 127 179.827 127C179.672 127 179.518 127 179.363 127C179.208 127 179.054 127 178.899 127C178.744 127 178.589 127 178.435 127C178.28 127 178.125 127 177.97 127C177.815 127 177.66 127 177.506 127C177.351 127 177.196 127 177.041 127C176.886 127 176.731 127 176.576 127C176.421 127 176.266 127 176.111 127C175.956 127 175.801 127 175.646 127C175.49 127 175.335 127 175.18 127C175.025 127 174.87 127 174.715 127C174.56 127 174.405 127 174.249 127C174.094 127 173.939 127 173.784 127C173.628 127 173.473 127 173.318 127C173.163 127 173.007 127 172.852 127C172.697 127 172.542 127 172.386 127C172.231 127 172.076 127 171.92 127C171.765 127 171.61 127 171.454 127C171.299 127 171.144 127 170.988 127C170.833 127 170.677 127 170.522 127C170.367 127 170.211 127 170.056 127C169.9 127 169.745 127 169.59 127C169.434 127 169.279 127 169.123 127C168.968 127 168.813 127 168.657 127C168.502 127 168.346 127 168.191 127C168.035 127 167.88 127 167.724 127C167.569 127 167.414 127 167.258 127C167.103 127 166.947 127 166.792 127C166.636 127 166.481 127 166.325 127C166.17 127 166.015 127 165.859 127C165.704 127 165.548 127 165.393 127C165.237 127 165.082 127 164.926 127C164.771 127 164.616 127 164.46 127C164.305 127 164.149 127 163.994 127C163.839 127 163.683 127 163.528 127C163.372 127 163.217 127 163.062 127C162.906 127 162.751 127 162.596 127C162.44 127 162.285 127 162.13 127C161.974 127 161.819 127 161.664 127C161.508 127 161.353 127 161.198 127C161.043 127 160.887 127 160.732 127C160.577 127 160.422 127 160.266 127C160.111 127 159.956 127 159.801 127C159.646 127 159.49 127 159.335 127C159.18 127 159.025 127 158.87 127C158.715 127 158.56 127 158.405 127C158.25 127 158.095 127 157.94 127C157.784 127 157.629 127 157.475 127C157.32 127 157.165 127 157.01 127C156.855 127 156.7 127 156.545 127C156.39 127 156.235 127 156.08 127C155.925 127 155.771 127 155.616 127C155.461 127 155.306 127 155.152 127C154.997 127 154.842 127 154.688 127C154.533 127 154.378 127 154.224 127C154.069 127 153.914 127 153.76 127C153.605 127 153.451 127 153.296 127C153.142 127 152.987 127 152.833 127C152.679 127 152.524 127 152.37 127C152.215 127 152.061 127 151.907 127C151.753 127 151.598 127 151.444 127C151.29 127 151.136 127 150.982 127C150.828 127 150.673 127 150.519 127C150.365 127 150.211 127 150.057 127C149.903 127 149.749 127 149.596 127C149.442 127 149.288 127 149.134 127C148.98 127 148.826 127 148.673 127C148.519 127 148.365 127 148.212 127C148.058 127 147.904 127 147.751 127C147.597 127 147.444 127 147.29 127C147.137 127 146.984 127 146.83 127C146.677 127 146.523 127 146.37 127C146.217 127 146.064 127 145.911 127C145.757 127 145.604 127 145.451 127C145.298 127 145.145 127 144.992 127C144.839 127 144.686 127 144.534 127C144.381 127 144.228 127 144.075 127C143.922 127 143.77 127 143.617 127C143.464 127 143.312 127 143.159 127C143.007 127 142.854 127 142.702 127C142.55 127 142.397 127 142.245 127C142.093 127 141.94 127 141.788 127C141.636 127 141.484 127 141.332 127C141.18 127 141.028 127 140.876 127C140.724 127 140.572 127 140.42 127C140.268 127 140.117 127 139.965 127C139.813 127 139.662 127 139.51 127C139.359 127 139.207 127 139.056 127C138.904 127 138.753 127 138.602 127C138.45 127 138.299 127 138.148 127C137.997 127 137.846 127 137.695 127C137.544 127 137.393 127 137.242 127C137.091 127 136.94 127 136.79 127C136.639 127 136.488 127 136.338 127C136.187 127 136.037 127 135.886 127C135.736 127 135.585 127 135.435 127C135.285 127 135.135 127 134.985 127C134.834 127 134.684 127 134.534 127C134.384 127 134.234 127 134.085 127C133.935 127 133.785 127 133.635 127C133.486 127 133.336 127 133.187 127C133.037 127 132.888 127 132.738 127C132.589 127 132.44 127 132.291 127C132.141 127 131.992 127 131.843 127C131.694 127 131.545 127 131.397 127C131.248 127 131.099 127 130.95 127C130.802 127 130.653 127 130.505 127C130.356 127 130.208 127 130.059 127C129.911 127 129.763 127 129.615 127C129.467 127 129.319 127 129.171 127C129.023 127 128.875 127 128.727 127C128.579 127 128.432 127 128.284 127C128.136 127 127.989 127 127.841 127C127.694 127 127.547 127 127.399 127C127.252 127 127.105 127 126.958 127C126.811 127 126.664 127 126.517 127C126.37 127 126.224 127 126.077 127C125.93 127 125.784 127 125.638 127C125.491 127 125.345 127 125.198 127C125.052 127 124.906 127 124.76 127C124.614 127 124.468 127 124.322 127C124.176 127 124.031 127 123.885 127C123.739 127 123.594 127 123.448 127C123.303 127 123.158 127 123.013 127C122.867 127 122.722 127 122.577 127C122.432 127 122.287 127 122.143 127C121.998 127 121.853 127 121.709 127C121.564 127 121.42 127 121.275 127C121.131 127 120.987 127 120.843 127C120.698 127 120.554 127 120.41 127C120.267 127 120.123 127 119.979 127C119.835 127 119.692 127 119.548 127C119.405 127 119.262 127 119.118 127C118.975 127 118.832 127 118.689 127C118.546 127 118.403 127 118.261 127C118.118 127 117.975 127 117.833 127C117.69 127 117.548 127 117.406 127C117.263 127 117.121 127 116.979 127C116.837 127 116.695 127 116.553 127C116.412 127 116.27 127 116.128 127C115.987 127 115.845 127 115.704 127C115.563 127 115.422 127 115.281 127C115.14 127 114.999 127 114.858 127C114.717 127 114.576 127 114.436 127C114.295 127 114.155 127 114.015 127C113.874 127 113.734 127 113.594 127C113.454 127 113.314 127 113.175 127C113.035 127 112.895 127 112.756 127C112.616 127 112.477 127 112.338 127C112.198 127 112.059 127 111.92 127C111.781 127 111.643 127 111.504 127C111.365 127 111.227 127 111.088 127C110.95 127 110.812 127 110.673 127C110.535 127 110.397 127 110.259 127C110.121 127 109.984 127 109.846 127C109.709 127 109.571 127 109.434 127C109.297 127 109.159 127 109.022 127C108.885 127 108.748 127 108.612 127C108.475 127 108.338 127 108.202 127C108.065 127 107.929 127 107.793 127C107.657 127 107.521 127 107.385 127C107.249 127 107.113 127 106.978 127C106.842 127 106.707 127 106.571 127C106.436 127 106.301 127 106.166 127C106.031 127 105.896 127 105.762 127C105.627 127 105.492 127 105.358 127C105.224 127 105.089 127 104.955 127C104.821 127 104.687 127 104.554 127C104.42 127 104.286 127 104.153 127C104.019 127 103.886 127 103.753 127C103.62 127 103.487 127 103.354 127C103.221 127 103.088 127 102.956 127C102.823 127 102.691 127 102.559 127C102.427 127 102.295 127 102.163 127C102.031 127 101.899 127 101.767 127C101.636 127 101.505 127 101.373 127C101.242 127 101.111 127 100.98 127C100.849 127 100.718 127 100.588 127C100.457 127 100.327 127 100.197 127C100.066 127 99.9364 127 99.8064 127C99.6765 127 99.5468 127 99.4172 127C99.2876 127 99.1582 127 99.029 127C98.8998 127 98.7707 127 98.6418 127C98.5129 127 98.3842 127 98.2556 127C98.1271 127 97.9987 127 97.8705 127C97.7423 127 97.6142 127 97.4864 127C97.3585 127 97.2308 127 97.1033 127C96.9758 127 96.8485 127 96.7213 127C96.5941 127 96.4671 127 96.3403 127C96.2135 127 96.0869 127 95.9604 127C95.834 127 95.7077 127 95.5816 127C95.4555 127 95.3296 127 95.2039 127C95.0781 127 94.9526 127 94.8272 127C94.7018 127 94.5766 127 94.4516 127C94.3266 127 94.2018 127 94.0771 127C93.9525 127 93.828 127 93.7037 127C93.5795 127 93.4554 127 93.3315 127C93.2076 127 93.0838 127 92.9603 127C92.8368 127 92.7134 127 92.5903 127C92.4671 127 92.3441 127 92.2214 127C92.0986 127 91.976 127 91.8536 127C91.7312 127 91.609 127 91.487 127C91.3649 127 91.2431 127 91.1215 127C90.9998 127 90.8784 127 90.7571 127C90.6359 127 90.5148 127 90.394 127C90.2731 127 90.1525 127 90.032 127C89.9115 127 89.7912 127 89.6712 127C89.5511 127 89.4312 127 89.3115 127C89.1918 127 89.0723 127 88.9531 127C88.8338 127 88.7147 127 88.5958 127C88.4769 127 88.3582 127 88.2397 127C88.1213 127 88.003 127 87.8849 127C87.7668 127 87.6489 127 87.5312 127C87.4136 127 87.2961 127 87.1788 127C87.0616 127 86.9445 127 86.8276 127C86.7108 127 86.5941 127 86.4777 127C86.3612 127 86.245 127 86.129 127C86.0129 127 85.8971 127 85.7815 127C85.6659 127 85.5505 127 85.4353 127C85.3201 127 85.2051 127 85.0903 127C84.9755 127 84.861 127 84.7466 127C84.6323 127 84.5181 127 84.4042 127C84.2903 127 84.1766 127 84.0631 127C83.9496 127 83.8363 127 83.7232 127C83.6102 127 83.4973 127 83.3847 127C83.272 127 83.1596 127 83.0474 127C82.9352 127 82.8232 127 82.7115 127C82.5997 127 82.4881 127 82.3768 127C82.2655 127 82.1544 127 82.0435 127C81.9326 127 81.8219 127 81.7115 127C81.6011 127 81.4908 127 81.3808 127C81.2708 127 81.1611 127 81.0515 127C80.942 127 80.8326 127 80.7235 127C80.6144 127 80.5056 127 80.3969 127C80.2883 127 80.1798 127 80.0716 127C79.9634 127 79.8555 127 79.7477 127C79.64 127 79.5325 127 79.4252 127C79.3179 127 79.2109 127 79.104 127C78.9972 127 78.8906 127 78.7843 127C78.6779 127 78.5718 127 78.4659 127C78.36 127 78.2544 127 78.1489 127C78.0435 127 77.9383 127 77.8334 127C77.7284 127 77.6237 127 77.5192 127C77.4147 127 77.3105 127 77.2064 127C77.1024 127 76.9987 127 76.8951 127C76.7916 127 76.6883 127 76.5852 127C76.4822 127 76.3794 127 76.2768 127C76.1742 127 76.0719 127 75.9698 127C75.8677 127 75.7658 127 75.6642 127C75.5626 127 75.4612 127 75.3601 127C75.259 127 75.1581 127 75.0575 127C74.9568 127 74.8565 127 74.7563 127C74.6562 127 74.5563 127 74.4566 127C74.357 127 74.2576 127 74.1584 127C74.0593 127 73.9604 127 73.8617 127C73.763 127 73.6646 127 73.5665 127C73.4683 127 73.3704 127 73.2728 127C73.1751 127 73.0777 127 72.9806 127C72.8834 127 72.7865 127 72.6899 127C72.5932 127 72.4968 127 72.4007 127C72.3046 127 72.2087 127 72.1131 127C72.0174 127 71.9221 127 71.827 127C71.7319 127 71.637 127 71.5424 127C71.4478 127 71.3535 127 71.2594 127C71.1653 127 71.0715 127 70.9779 127C70.8844 127 70.7911 127 70.6981 127C70.605 127 70.5122 127 70.4197 127C70.3272 127 70.235 127 70.143 127C70.051 127 69.9593 127 69.8678 127C69.7764 127 69.6852 127 69.5942 127C69.5033 127 69.4127 127 69.3223 127C69.2319 127 69.1417 127 69.0519 127C68.962 127 68.8724 127 68.7831 127C68.6938 127 68.6047 127 68.516 127C68.4272 127 68.3387 127 68.2504 127C68.1622 127 68.0742 127 67.9865 127C67.8988 127 67.8114 127 67.7243 127C67.6371 127 67.5502 127 67.4636 127C67.377 127 67.2907 127 67.2046 127C67.1186 127 67.0328 127 66.9473 127C66.8618 127 66.7766 127 66.6916 127C66.6067 127 66.522 127 66.4376 127C66.3533 127 66.2692 127 66.1853 127C66.1015 127 66.0179 127 65.9347 127C65.8514 127 65.7684 127 65.6857 127C65.603 127 65.5206 127 65.4385 127C65.3563 127 65.2745 127 65.1929 127C65.1113 127 65.03 127 64.949 127C64.868 127 64.7873 127 64.7069 127C64.6265 127 64.5463 127 64.4665 127C64.3866 127 64.3071 127 64.2278 127C64.1485 127 64.0695 127 63.9908 127C63.9121 127 63.8337 127 63.7556 127C63.6775 127 63.5997 127 63.5221 127C63.4446 127 63.3673 127 63.2904 127C63.2134 127 63.1368 127 63.0604 127C62.9841 127 62.908 127 62.8322 127C62.7565 127 62.681 127 62.6058 127C62.5306 127 62.4558 127 62.3812 127C62.3066 127 62.2323 127 62.1583 127C62.0843 127 62.0106 127 61.9372 127C61.8639 127 61.7908 127 61.718 127C61.6452 127 61.5727 127 61.5005 127C61.4283 127 61.3564 127 61.2849 127C61.2133 127 61.142 127 61.071 127C61.0001 127 60.9294 127 60.859 127C60.7887 127 60.7186 127 60.6489 127C60.5791 127 60.5097 127 60.4405 127C60.3714 127 60.3025 127 60.234 127C60.1655 127 60.0973 127 60.0294 127C59.9615 127 59.8939 127 59.8266 127C59.7593 127 59.6924 127 59.6257 127C59.559 127 59.4927 127 59.4266 127C59.3606 127 59.2949 127 59.2295 127C59.1641 127 59.099 127 59.0342 127C58.9694 127 58.905 127 58.8408 127C58.7767 127 58.7128 127 58.6493 127C58.5858 127 58.5226 127 58.4597 127C58.3968 127 58.3343 127 58.272 127C58.2098 127 58.1479 127 58.0863 127C58.0247 127 57.9634 127 57.9024 127C57.8415 127 57.7809 127 57.7205 127C57.6602 127 57.6002 127 57.5406 127C57.4809 127 57.4216 127 57.3625 127C57.3035 127 57.2448 127 57.1865 127C57.1281 127 57.0701 127 57.0124 127C56.9546 127 56.8973 127 56.8402 127C56.7831 127 56.7264 127 56.67 127C56.6136 127 56.5575 127 56.5018 127C56.4461 127 56.3907 127 56.3356 127C56.2805 127 56.2258 127 56.1713 127C56.1169 127 56.0628 127 56.0091 127C55.9554 127 55.9019 127 55.8489 127C55.7958 127 55.743 127 55.6906 127C55.6382 127 55.5862 127 55.5344 127C55.4827 127 55.4313 127 55.3802 127C55.3292 127 55.2785 127 55.2281 127C55.1777 127 55.1276 127 55.0779 127C55.0282 127 54.9789 127 54.9299 127C54.8808 127 54.8322 127 54.7838 127C54.7355 127 54.6875 127 54.6399 127C54.5922 127 54.5449 127 54.4979 127C54.451 127 54.4044 127 54.3581 127C54.3118 127 54.2659 127 54.2203 127C54.1747 127 54.1295 127 54.0846 127C54.0397 127 53.9952 127 53.951 127C53.9068 127 53.863 127 53.8195 127C53.776 127 53.7329 127 53.6901 127C53.6473 127 53.6049 127 53.5628 127C53.5207 127 53.479 127 53.4376 127C53.3962 127 53.3552 127 53.3146 127C53.2739 127 53.2336 127 53.1936 127C53.1537 127 53.1141 127 53.0748 127C53.0356 127 52.9967 127 52.9582 127C52.9196 127 52.8815 127 52.8437 127C52.8058 127 52.7684 127 52.7313 127C52.6942 127 52.6575 127 52.6211 127C52.5847 127 52.5487 127 52.5131 127C52.4774 127 52.4421 127 52.4072 127C52.3723 127 52.3377 127 52.3035 127C52.2693 127 52.2355 127 52.202 127C52.1686 127 52.1355 127 52.1027 127C52.07 127 52.0376 127 52.0056 127C51.9736 127 51.942 127 51.9108 127C51.8795 127 51.8486 127 51.8181 127C51.7876 127 51.7574 127 51.7276 127C51.6978 127 51.6684 127 51.6394 127C51.6103 127 51.5817 127 51.5534 127C51.5251 127 51.4972 127 51.4696 127C51.4421 127 51.4149 127 51.3881 127C51.3613 127 51.3349 127 51.3089 127C51.2828 127 51.2571 127 51.2319 127C51.2066 127 51.1817 127 51.1571 127C51.1326 127 51.1084 127 51.0847 127C51.0609 127 51.0375 127 51.0145 127C50.9915 127 50.9688 127 50.9466 127C50.9243 127 50.9025 127 50.881 127C50.8595 127 50.8384 127 50.8177 127C50.7969 127 50.7766 127 50.7567 127C50.7367 127 50.7171 127 50.698 127C50.6788 127 50.66 127 50.6416 127C50.6232 127 50.6052 127 50.5875 127C50.5699 127 50.5527 127 50.5358 127C50.519 127 50.5025 127 50.4865 127C50.4704 127 50.4547 127 50.4394 127C50.4241 127 50.4092 127 50.3947 127C50.3802 127 50.3661 127 50.3524 127C50.3387 127 50.3254 127 50.3125 127C50.2995 127 50.287 127 50.2749 127C50.2627 127 50.251 127 50.2397 127C50.2283 127 50.2174 127 50.2068 127C50.1963 127 50.1861 127 50.1764 127C50.1666 127 50.1573 127 50.1483 127C50.1394 127 50.1309 127 50.1227 127C50.1146 127 50.1068 127 50.0995 127C50.0921 127 50.0852 127 50.0787 127C50.0721 127 50.066 127 50.0603 127C50.0546 127 50.0492 127 50.0443 127C50.0394 127 50.0349 127 50.0308 127C50.0267 127 50.023 127 50.0197 127C50.0165 127 50.0136 127 50.0111 127C50.0086 127 50.0066 127 50.0049 127C50.0033 127 50.0021 127 50.0012 127C50.0004 127 50 127 50 130.5ZM0 420.5H-7V427.5H0V420.5ZM0 237.5V230.5H-7V237.5H0ZM50 367.5H43V374.5H50V367.5ZM227.5 367.5L227.586 360.501L227.543 360.5H227.5V367.5ZM50 290V283H43V290H50ZM227.5 237.5L227.669 230.502L227.584 230.5H227.5V237.5ZM365 256L371.83 254.466L368.229 238.437L359.162 252.137L365 256ZM337.269 210.25L342.389 215.023L346.839 210.25L342.389 205.477L337.269 210.25ZM397.647 210.25L391.603 206.718L389.539 210.25L391.603 213.782L397.647 210.25ZM0 0V-7H-7V0H0ZM0 183H-7V190H0V183ZM50 53V46H43V53H50ZM227.5 53V60H227.543L227.586 59.9995L227.5 53ZM50 130.5H43V137.5H50V130.5ZM227.5 183V190H227.584L227.669 189.998L227.5 183ZM365 164.5L359.162 168.363L368.229 182.063L371.83 166.034L365 164.5ZM-7 237.5V420.5H7V237.5H-7ZM227.5 360.5H50V374.5H227.5V360.5ZM57 367.5V290H43V367.5H57ZM0 427.5H227.5V413.5H0V427.5ZM227.5 230.5H0V244.5H227.5V230.5ZM227.414 374.499C310.651 375.521 348.072 346.897 363.642 315.619C371.242 300.35 373.27 285.114 373.437 273.806C373.52 268.133 373.137 263.386 372.726 260.024C372.52 258.341 372.307 256.999 372.14 256.055C372.056 255.583 371.984 255.209 371.93 254.942C371.903 254.809 371.881 254.702 371.864 254.622C371.855 254.582 371.848 254.549 371.842 254.523C371.84 254.51 371.837 254.499 371.835 254.489C371.834 254.484 371.833 254.478 371.832 254.476C371.831 254.471 371.83 254.466 365 256C358.17 257.534 358.169 257.53 358.168 257.527C358.168 257.526 358.168 257.523 358.167 257.521C358.167 257.519 358.167 257.518 358.167 257.518C358.167 257.52 358.169 257.528 358.172 257.543C358.178 257.572 358.19 257.628 358.206 257.709C358.239 257.871 358.29 258.135 358.354 258.494C358.481 259.211 358.656 260.306 358.829 261.722C359.176 264.56 359.511 268.664 359.438 273.6C359.292 283.511 357.508 296.525 351.108 309.381C338.678 334.353 307.349 361.479 227.586 360.501L227.414 374.499ZM365 256C359.162 252.137 359.167 252.13 359.171 252.124C359.172 252.122 359.177 252.116 359.179 252.112C359.185 252.104 359.189 252.096 359.194 252.09C359.203 252.076 359.211 252.064 359.218 252.055C359.231 252.035 359.239 252.024 359.241 252.021C359.246 252.015 359.228 252.04 359.185 252.096C359.1 252.206 358.915 252.435 358.614 252.769C358.013 253.434 356.942 254.518 355.262 255.889C351.905 258.628 346.076 262.546 336.637 266.558C317.734 274.592 284.348 283 227.5 283V297C285.652 297 321.016 288.408 342.113 279.442C352.674 274.954 359.657 270.372 364.113 266.736C366.339 264.92 367.924 263.347 369.003 262.153C369.542 261.557 369.953 261.056 370.253 260.668C370.404 260.474 370.526 260.309 370.623 260.174C370.671 260.106 370.713 260.047 370.749 259.995C370.766 259.969 370.783 259.945 370.798 259.923C370.805 259.912 370.812 259.901 370.819 259.891C370.822 259.886 370.827 259.879 370.828 259.877C370.833 259.87 370.838 259.863 365 256ZM227.5 427.5C324.4 427.5 371.976 389.816 394.701 348.365C417.013 307.666 414.5 264.694 414.5 256H400.5C400.5 265.306 402.737 304.584 382.424 341.635C362.524 377.934 320.1 413.5 227.5 413.5V427.5ZM332.149 205.477C327.662 210.289 320.83 214.477 312.175 217.976C303.581 221.45 293.608 224.079 283.263 226.011C262.558 229.879 241.063 230.825 227.669 230.502L227.331 244.498C241.506 244.84 263.996 243.852 285.833 239.773C296.76 237.733 307.698 234.886 317.422 230.955C327.084 227.049 335.977 221.902 342.389 215.023L332.149 205.477ZM414.5 256C414.5 247.183 414.519 239.328 413.165 231.532C411.775 223.53 408.991 215.787 403.69 206.718L391.603 213.782C396.156 221.572 398.298 227.747 399.372 233.928C400.481 240.314 400.5 246.905 400.5 256H414.5ZM227.5 283H50V297H227.5V283ZM7 183V0H-7V183H7ZM227.5 46H50V60H227.5V46ZM43 53V130.5H57V53H43ZM0 7H227.5V-7H0V7ZM227.5 176H0V190H227.5V176ZM227.586 59.9995C307.349 59.0208 338.678 86.1467 351.108 111.119C357.508 123.975 359.292 136.989 359.438 146.9C359.511 151.836 359.176 155.94 358.829 158.778C358.656 160.194 358.481 161.289 358.354 162.006C358.29 162.365 358.239 162.629 358.206 162.791C358.19 162.872 358.178 162.928 358.172 162.957C358.169 162.972 358.167 162.98 358.167 162.982C358.167 162.982 358.167 162.981 358.167 162.979C358.168 162.977 358.168 162.974 358.168 162.973C358.169 162.97 358.17 162.966 365 164.5C371.83 166.034 371.831 166.029 371.832 166.024C371.833 166.022 371.834 166.016 371.835 166.011C371.837 166.001 371.84 165.99 371.842 165.977C371.848 165.951 371.855 165.918 371.864 165.878C371.881 165.798 371.903 165.691 371.93 165.558C371.984 165.291 372.056 164.917 372.14 164.445C372.307 163.501 372.52 162.159 372.726 160.476C373.137 157.114 373.52 152.367 373.437 146.694C373.27 135.386 371.242 120.15 363.642 104.881C348.072 73.6033 310.651 44.9792 227.414 46.0005L227.586 59.9995ZM365 164.5C370.838 160.637 370.833 160.63 370.828 160.623C370.827 160.621 370.822 160.614 370.819 160.609C370.812 160.599 370.805 160.588 370.798 160.577C370.783 160.555 370.766 160.531 370.749 160.505C370.713 160.453 370.671 160.394 370.623 160.326C370.526 160.191 370.404 160.026 370.253 159.832C369.953 159.444 369.542 158.943 369.003 158.347C367.924 157.153 366.339 155.58 364.113 153.764C359.657 150.128 352.674 145.546 342.113 141.058C321.016 132.092 285.652 123.5 227.5 123.5V137.5C284.348 137.5 317.734 145.908 336.637 153.942C346.076 157.954 351.905 161.872 355.262 164.611C356.942 165.982 358.013 167.066 358.614 167.731C358.915 168.065 359.1 168.294 359.185 168.404C359.228 168.46 359.246 168.485 359.241 168.479C359.239 168.476 359.231 168.465 359.218 168.445C359.211 168.436 359.203 168.424 359.194 168.41C359.189 168.404 359.185 168.396 359.179 168.388C359.177 168.384 359.172 168.378 359.171 168.376C359.167 168.37 359.162 168.363 365 164.5ZM227.5 7C320.1 7 362.524 42.5665 382.424 78.8651C402.737 115.916 400.5 155.194 400.5 164.5H414.5C414.5 155.806 417.013 112.834 394.701 72.1349C371.976 30.6835 324.4 -7 227.5 -7V7ZM342.389 205.477C335.977 198.598 327.084 193.451 317.422 189.545C307.698 185.614 296.76 182.767 285.833 180.727C263.996 176.648 241.506 175.66 227.331 176.002L227.669 189.998C241.063 189.675 262.558 190.621 283.263 194.489C293.608 196.421 303.581 199.05 312.175 202.524C320.83 206.023 327.662 210.211 332.149 215.023L342.389 205.477ZM400.5 164.5C400.5 173.595 400.481 180.186 399.372 186.572C398.298 192.753 396.156 198.928 391.603 206.718L403.69 213.782C408.991 204.713 411.775 196.97 413.165 188.968C414.519 181.172 414.5 173.317 414.5 164.5H400.5ZM227.5 123.5H50V137.5H227.5V123.5Z" fill="#B42323" mask="url(#path-1-inside-1_2_9)"/>
</svg>
