<svg width="1513" height="481" viewBox="0 0 1513 481" fill="none" xmlns="http://www.w3.org/2000/svg">
<path d="M-59.9999 137.673C-36.1665 85.1992 67.2024 3.2054 290.011 95.0219C568.521 209.792 522.897 312.155 691.774 259.423C860.65 206.691 1025.44 -105.051 1171.17 36.8611C1316.89 178.773 1444.23 162.488 1479.64 137.673C1515.05 112.858 1539.56 71.7576 1568.84 78.7369C1592.27 84.3203 1615.37 163.781 1624 202.813C1596.53 177.739 1549.23 153.958 1579.74 259.423C1617.87 391.254 1416.99 274.157 1246.75 288.891C1076.51 303.625 1171.17 46.1668 965.517 317.584C759.869 589.001 616.188 443.211 568.521 423.049C520.854 402.886 439.821 124.49 329.506 272.606C241.254 391.099 33.0639 354.031 -59.9999 320.686V137.673Z" fill="#F6C505"/>
</svg>
